<svg xmlns="http://www.w3.org/2000/svg" viewBox="0 0 360 115"><defs><style>.cls-1{fill:#c00;}.cls-2{fill:#fff;}</style></defs><g id="Layer_2" data-name="Layer 2"><g id="balsamiq_logo" data-name="balsamiq logo"><rect class="cls-1" width="360" height="115" rx="12"/><path class="cls-2" d="M57.42,76.44c.12-2.12.25-5.25.25-8V31h5.57V50.45h.13c2-3.45,5.57-5.69,10.56-5.69,7.68,0,13.12,6.4,13,15.8,0,11.08-7,16.58-13.89,16.58-4.48,0-8.06-1.73-10.36-5.82h-.19l-.26,5.12ZM63.24,64a10.45,10.45,0,0,0,.26,2,8.68,8.68,0,0,0,8.44,6.59c5.89,0,9.41-4.8,9.41-11.9,0-6.21-3.2-11.52-9.22-11.52a9,9,0,0,0-8.57,6.91,11,11,0,0,0-.32,2.3Z"/><path class="cls-2" d="M112.68,76.44l-.44-3.91H112a11.52,11.52,0,0,1-9.47,4.61c-6.27,0-9.47-4.42-9.47-8.9,0-7.48,6.66-11.58,18.62-11.51v-.65c0-2.55-.7-7.16-7-7.16a15.41,15.41,0,0,0-8.06,2.3l-1.28-3.71a19.26,19.26,0,0,1,10.18-2.75c9.47,0,11.77,6.46,11.77,12.67V69a44.16,44.16,0,0,0,.51,7.43Zm-.83-15.81c-6.14-.13-13.12,1-13.12,7A5,5,0,0,0,104,73a7.7,7.7,0,0,0,7.49-5.18,6,6,0,0,0,.32-1.8Z"/><path class="cls-2" d="M127.32,31H133V76.44h-5.63Z"/><path class="cls-2" d="M142.27,70.68a14.86,14.86,0,0,0,7.42,2.24c4.1,0,6-2,6-4.61s-1.6-4.16-5.76-5.7c-5.57-2-8.19-5-8.19-8.76,0-5,4-9.09,10.69-9.09a15.4,15.4,0,0,1,7.61,1.92l-1.41,4.09A12.09,12.09,0,0,0,152.32,49c-3.33,0-5.18,1.92-5.18,4.23,0,2.56,1.85,3.71,5.88,5.24,5.38,2,8.13,4.74,8.13,9.35,0,5.44-4.22,9.28-11.58,9.28A17.71,17.71,0,0,1,140.86,75Z"/><path class="cls-2" d="M187.15,76.44l-.44-3.91h-.2A11.52,11.52,0,0,1,177,77.14c-6.27,0-9.47-4.42-9.47-8.9,0-7.48,6.66-11.58,18.62-11.51v-.65c0-2.55-.7-7.16-7-7.16a15.41,15.41,0,0,0-8.06,2.3l-1.28-3.71A19.26,19.26,0,0,1,180,44.76c9.47,0,11.77,6.46,11.77,12.67V69a44.16,44.16,0,0,0,.51,7.43Zm-.83-15.81c-6.14-.13-13.12,1-13.12,7A5,5,0,0,0,178.51,73,7.71,7.71,0,0,0,186,67.8a6,6,0,0,0,.32-1.8Z"/><path class="cls-2" d="M201.74,53.85c0-3.2-.06-5.83-.26-8.39h4.93l.26,5h.19a10.69,10.69,0,0,1,9.73-5.69A9.15,9.15,0,0,1,225.35,51h.13a12.78,12.78,0,0,1,3.46-4,10.6,10.6,0,0,1,6.85-2.17c4.09,0,10.17,2.69,10.17,13.44V76.44h-5.5V58.9c0-5.95-2.18-9.53-6.72-9.53a7.29,7.29,0,0,0-6.66,5.12,9.4,9.4,0,0,0-.45,2.81V76.44h-5.5V57.88c0-4.93-2.17-8.51-6.46-8.51-3.52,0-6.08,2.81-7,5.63a7.75,7.75,0,0,0-.45,2.75V76.44h-5.5Z"/><path class="cls-2" d="M262.31,36.76a3.49,3.49,0,0,1-7,0,3.43,3.43,0,0,1,3.52-3.52A3.34,3.34,0,0,1,262.31,36.76ZM256,76.44v-31h5.63v31Z"/><path class="cls-2" d="M293.28,71.64h-.13c-1.67,3.07-5.12,5.5-10.11,5.5-7.23,0-13.12-6.27-13.12-15.68,0-11.58,7.49-16.7,14-16.7,4.8,0,8,2.37,9.54,5.37h.13l.19-4.67h5.31c-.13,2.63-.19,5.31-.19,8.51V89.11h-5.63Zm0-13.64a9.65,9.65,0,0,0-.26-2.36,8.22,8.22,0,0,0-8.06-6.4c-5.83,0-9.35,4.93-9.35,11.9,0,6.14,2.95,11.52,9.15,11.52a8.4,8.4,0,0,0,8.07-6.14,9.72,9.72,0,0,0,.45-2.69Z"/><path class="cls-2" d="M315.46,49.33a5,5,0,1,1-5-4.81A4.88,4.88,0,0,1,315.46,49.33Zm-8.46,0a3.5,3.5,0,1,0,3.48-3.64A3.49,3.49,0,0,0,307,49.36Zm2.89,2.27h-1.37V47.18a11.61,11.61,0,0,1,2-.14,3.44,3.44,0,0,1,1.79.33,1.17,1.17,0,0,1,.47,1c0,.45-.42.84-1,1v.06a1.35,1.35,0,0,1,.92,1.15,4.38,4.38,0,0,0,.31,1.06H311.4a2.84,2.84,0,0,1-.31-1,.69.69,0,0,0-.75-.67h-.45Zm.05-2.55h.4c.5,0,.84-.19.84-.53s-.31-.56-.79-.56c-.17,0-.33,0-.45,0Z"/></g></g></svg>