<?xml version="1.0" encoding="utf-8"?>
<!-- Generator: Adobe Illustrator 19.0.0, SVG Export Plug-In . SVG Version: 6.00 Build 0)  -->
<svg version="1.1" id="layer" xmlns="http://www.w3.org/2000/svg" xmlns:xlink="http://www.w3.org/1999/xlink" x="0px" y="0px"
	 viewBox="-153 -46 652 652" style="enable-background:new -153 -46 652 652;" xml:space="preserve">
<style type="text/css">
	.st0{fill:#EF3742;}
	.st1{fill:#00A0DD;}
</style>
<path class="st0" d="M-60.7,290.8c-5.1,11.2-15.4,17.9-27.4,17.9c-17.2,0-31.1-15.1-31.1-33.6s14-33.6,31.1-33.6
	c12.4,0,22.4,6.6,27.4,17.9l0.2,0.5h12.9l-0.4-1.3c-5.7-18-21.1-29.2-40.1-29.2c-24,0-43.4,20.4-43.4,45.5s19.4,45.6,43.4,45.6
	c18.8,0,34.2-11.2,40.1-29.3l0.4-1.3h-12.8C-60.4,290.1-60.7,290.8-60.7,290.8z M-9.4,309.1c-11.2,0-20.4-10-20.4-22.3
	c0-12.5,9.1-22.6,20.4-22.6s20.7,10.4,20.7,22.6C11.1,298.9,1.7,309.1-9.4,309.1 M11.6,262.4c-5.2-6.3-12.9-10-21-10.1
	c-18.4,0-32.8,15.1-32.8,34.4c0,19.2,14.4,34.3,32.8,34.3c8.2-0.1,15.9-3.8,21-10.2v8.6h12v-65.5h-12
	C11.6,253.9,11.6,262.4,11.6,262.4z M64.2,252.3c-6.6-0.1-12.9,2.5-17.5,7.2v-5.6h-12v65.5h12.4v-39.8c0-9.1,6.6-15.7,15.7-15.7
	c7.7,0,13.1,4.6,14.3,12.2v0.2l12.3-0.1v-0.3C87.8,261.4,78.2,252.3,64.2,252.3 M-90.9,265.1h8.1v23.7h-8.1V265.1z M-71.9,264.1
	c2.6,0,4.7,2.1,4.7,4.7c0,2.6-2.1,4.7-4.7,4.7c-2.6,0-4.7-2.1-4.7-4.7C-76.5,266.2-74.4,264.1-71.9,264.1z M-101.9,264.1
	c2.6,0,4.7,2.1,4.7,4.7c0,2.6-2.1,4.7-4.7,4.7c-2.6,0-4.7-2.1-4.7-4.7C-106.6,266.2-104.5,264.1-101.9,264.1z"/>
<path class="st1" d="M345.9,320.4c-15.6,0-26.9-11.3-26.9-26.9v-38.9h10.9v38.9c0,9.7,6.4,16.2,16,16.2c9.5,0,15.9-6.5,15.9-16.2
	v-38.9h11v38.9C372.8,309,361.5,320.4,345.9,320.4z M219.2,320.4c-15.6,0-26.9-11.3-26.9-26.9v-38.9h10.9v38.9
	c0,9.7,6.4,16.2,16,16.2c9.5,0,15.9-6.5,15.9-16.2v-38.9h11v38.9C246,309,234.7,320.4,219.2,320.4z M411.5,277.9
	c-12.9-2-15.3-3.7-15.3-7.2c0-4.5,5.9-8,13.5-8c7.9,0,13.1,3.5,14.3,9.4l0.2,0.7h12.5l-0.1-1.1c-1.4-12.7-11.7-20.7-26.9-20.7
	c-17.8,0-25.9,10.3-25.9,19.8c0,12.6,9.8,16.6,25.6,18.8c15.3,2,16.5,5.1,16.5,8.9c0,4.7-5.1,9.4-15,9.4c-9,0-15.6-4.4-16.9-11.2
	l-0.1-0.7h-12.4l0.1,1.1c1.8,13.7,13.3,22.6,29.3,22.6c16.1,0,27-8.7,27-21.7C438,283.3,426.5,280.2,411.5,277.9 M136.5,276.4v10.9
	h27.3l0.3-0.5c0.8-1.7,1.4-3.5,1.7-5.3c0.3-1.7,0.6-3.4,0.6-5.1L136.5,276.4L136.5,276.4z M171.3,276.4
	c-0.6,18.3-13.8,32.1-30.5,32.1c-17.4,0-31.6-15.1-31.6-33.4c0-18.5,14.2-33.5,31.6-33.5c11.8,0,21.9,6.7,27.1,17.9l0.2,0.5h13.3
	l-0.4-1.3c-6.3-18-22-29.6-40.1-29.6c-24.3,0-44,20.6-44,45.8s19.7,45.8,44,45.8c11.1,0,21.7-4.4,29.5-12.3
	c8.4-8.5,13-20.1,12.7-32.1C183.1,276.4,171.3,276.4,171.3,276.4z M286.8,252.3c-6.6-0.1-12.9,2.5-17.5,7.2v-5.6h-12v65.5h12.4
	v-39.8c0-9.1,6.6-15.7,15.7-15.7c7.7,0,13.1,4.6,14.3,12.2v0.2l12.3-0.1v-0.3C310.3,261.4,300.8,252.3,286.8,252.3 M458.5,252.8
	c-0.1-0.2-0.2-0.4-0.4-0.6c-0.1-0.2-0.3-0.3-0.5-0.4c1-0.2,2-0.7,2.7-1.5c0.6-0.8,0.9-1.7,0.9-2.7c0.1-1.2-0.4-2.4-1.4-3.1
	c-1.3-0.8-2.8-1.2-4.3-1.1h-4.9v15.1h2.6v-6h1.3c0.2,0,0.4,0,0.7,0.1c0.1,0.1,0.3,0.2,0.4,0.3l3.4,5.1c0.2,0.3,0.5,0.4,0.8,0.4h2.5
	L458.5,252.8L458.5,252.8L458.5,252.8z M455.2,250.5h-2v-5.2h2.2c0.5,0,1,0,1.5,0.2c0.4,0.1,0.7,0.2,1,0.5c0.2,0.2,0.4,0.5,0.5,0.8
	c0.1,0.4,0.2,0.7,0.2,1.1c0,0.7-0.2,1.5-0.8,2C457.1,250.4,456.1,250.6,455.2,250.5z M140.3,259.1c2.7,0,4.9,2.2,4.9,4.9
	c0,2.7-2.2,4.9-4.9,4.9s-4.9-2.2-4.9-4.9C135.4,261.3,137.6,259.1,140.3,259.1z M158.9,259.1c2.7,0,4.9,2.2,4.9,4.9
	c0,2.7-2.2,4.9-4.9,4.9s-4.9-2.2-4.9-4.9C154,261.3,156.2,259.1,158.9,259.1z M455.9,263.5c-7,0-12.6-5.6-12.6-12.6
	c0-7,5.6-12.6,12.6-12.6c7,0,12.6,5.6,12.6,12.6C468.5,257.9,462.9,263.5,455.9,263.5z M455.9,240.4c-5.8,0-10.6,4.7-10.5,10.6
	c0,5.8,4.7,10.6,10.6,10.5c5.8,0,10.5-4.7,10.5-10.6C466.5,245.1,461.7,240.4,455.9,240.4z"/>
</svg>
