<?xml version="1.0" encoding="utf-8"?>
<!-- Generator: Adobe Illustrator 19.2.1, SVG Export Plug-In . SVG Version: 6.00 Build 0)  -->
<svg version="1.1" id="layer" xmlns="http://www.w3.org/2000/svg" xmlns:xlink="http://www.w3.org/1999/xlink" x="0px" y="0px"
	 viewBox="0 0 652 652" style="enable-background:new 0 0 652 652;" xml:space="preserve">
<style type="text/css">
	.st0{fill:#1F2555;}
	.st1{fill:#00A6A7;}
</style>
<g id="Symbols">
	<g id="Logo">
		<g id="pega_logo_horizontal_positive_rgb">
			<path id="Fill-1" class="st0" d="M283.6,291.6l-0.4-0.2c0,0-4.3-1.9-7.6,1.6l-0.4,0.4l6.8,3.3L283.6,291.6z M314.8,329
				c0,0-3,5.3-4.3,7.3c-1.3,2-5.5,3.2-9.1,1.5c-1.6-0.8-17.1-9.8-23-9.3c-29.9,2.6-38-9.7-39-10.8c-1-1.1-2.8-0.6-1.5,1.6
				c6.6,11.2,25.9,16.4,25.9,16.4c5.1,12.2,5.7,20.8,5.7,20.8c-5-3.9-10.4-7.2-16.2-9.9c-15.4-10.3-39.4-23.1-72.5-31.1
				c1.9-26.3,15.2-64.2,77.1-55.3c0,0,12.4,2,20.7,7.8c0,0-2,2.1-4.6,4.7c-2.6,2.6,0.3,4.3,0.3,4.3l13.1,10.3
				c0.2,5.4,0.4,7,4.5,11.9c4.1,4.9,20,21.6,22.1,23.8C316.5,325.5,314.8,329,314.8,329z M172,277.8c-3.3,13.5-3,25.4-1.3,35.4
				c-3.1-0.6-6.3-1.2-9.5-1.7c-67.8-11-88.3,22.4-80.4,49.5c-22.4,8.4-43.5,18.1-60.4,27.6c26.6-63.9,84.5-120.1,133.3-127.4
				C169.6,258.9,174.1,269.3,172,277.8L172,277.8z"/>
			<path id="Fill-2" class="st1" d="M181.4,336.1c26.4-2.1,51.4,0.6,72,10.4c-15.4-10.3-39.4-23.1-72.5-31.1
				C180.2,324.6,180.9,332.3,181.4,336.1z M177.6,336.5c-29.6,2.8-64.6,12.4-96.8,24.5c-7.9-27.1,12.5-60.5,80.4-49.5
				c3.3,0.5,6.4,1.1,9.5,1.7C172.3,322.7,175.2,330.6,177.6,336.5L177.6,336.5z"/>
			<path id="Fill-3" class="st0" d="M574.3,326.3l9.2-22.4l9.2,22.4H574.3z M576.7,285.7L547,355.3h15.5l6.3-15.5h29.2l6.3,15.5
				h15.9l-29.6-69.6H576.7z M384.8,310.2c0,6-4.5,10.5-12.1,10.5h-12.1v-21.3h11.8c7.7,0,12.4,3.7,12.4,10.5V310.2z M373.6,285.7
				h-28.4v69.6h15.3v-20.9h11.6c15.6,0,28.2-8.4,28.2-24.5v-0.2C400.3,295.5,390.3,285.7,373.6,285.7z M483.6,293.4
				c-7.3,7.1-11,16.2-11,26.8c0,10.7,3.6,19.6,10.8,26.7c7.2,7,16.2,10.5,26.8,10.5c12.6,0,22.4-3.8,29.2-11.3l0.4-0.4v-32h-30.3
				v12.9h15.8v13.1c-4.1,2.4-9.2,3.7-15.2,3.7c-6.2,0-11.6-2.1-15.9-6.3c-4.3-4.2-6.5-9.9-6.5-16.8c0-7,2.3-12.7,6.7-16.9
				c4.5-4.3,10.1-6.4,16.8-6.4c3.5,0,6.6,0.4,9.2,1.3c2.4,0.8,4.9,2.2,7.4,4.3l8.5-10.7c-4.5-3.9-12.5-9.1-25.9-9.1
				C499.9,282.7,490.9,286.3,483.6,293.4z M426.7,327.4h30v-13.6h-30v-14.5H464v-13.6h-52.5v69.6h53v-13.6h-37.8V327.4L426.7,327.4z
				"/>
		</g>
	</g>
</g>
</svg>
