<?xml version="1.0" encoding="utf-8"?>
<!-- Generator: Adobe Illustrator 19.2.1, SVG Export Plug-In . SVG Version: 6.00 Build 0)  -->
<svg version="1.1" id="layer" xmlns="http://www.w3.org/2000/svg" xmlns:xlink="http://www.w3.org/1999/xlink" x="0px" y="0px"
	 viewBox="0 0 652 652" style="enable-background:new 0 0 652 652;" xml:space="preserve">
<style type="text/css">
	.st0{fill:#1467B1;}
</style>
<g>
	<g>
		<g>
			<path class="st0" d="M344.3,175.6c4.7,0,12.6,0,20.5,1.6c0,0,0,0,0,1.6c0,1.6,0,1.6,0,3.2c0,0,0,0-1.6,0
				C356.9,180.3,349,178.7,344.3,175.6C342.7,177.1,342.7,175.6,344.3,175.6L344.3,175.6z M356.9,199.2c0,1.6-1.6,1.6-1.6,3.2
				s-1.6,1.6-3.2,1.6c-12.6-4.7-23.7-7.9-36.3-9.5l0,0c7.9,0,23.7,0,39.4,4.7C356.9,196.1,358.5,197.6,356.9,199.2L356.9,199.2z
				 M314.3,185c-1.6,1.6-3.2,3.2-3.2,4.7c0,1.6-1.6,1.6-3.2,1.6c-20.5-3.2-42.6-3.2-42.6-3.2c-1.6,0-1.6,0,0,0
				c0,0,17.4-4.7,47.3-4.7C314.3,183.4,314.3,185,314.3,185L314.3,185z M267,262.3c6.3-3.2,20.5-4.7,37.9-6.3c0,0,1.6,0,0,1.6
				c0,1.6-1.6,3.2-1.6,4.7v1.6c0,0,0,0-1.6,0C289.1,260.7,274.9,260.7,267,262.3L267,262.3L267,262.3z M331.6,185
				c6.3,0,17.4,0,28.4,3.2c0,0,1.6,0,0,1.6c0,1.6-1.6,3.2-1.6,3.2s-1.6,1.6-1.6,0C350.6,189.7,339.5,186.6,331.6,185L331.6,185
				L331.6,185z M244.9,276.5L244.9,276.5c7.9-4.7,26.8-7.9,53.6-7.9c1.6,0,1.6,1.6,1.6,1.6c0,1.6-1.6,3.2-3.2,3.2l-1.6,1.6
				c0,0-1.6,0-3.2,0C274.9,273.3,255.9,274.9,244.9,276.5L244.9,276.5z M295.4,169.2c0,0,9.5-3.2,23.7-1.6c0,0,0,0,0,1.6
				c0,1.6,0,1.6-1.6,3.2c0,0,0,0-1.6,0C308,169.2,295.4,169.2,295.4,169.2L295.4,169.2L295.4,169.2z M341.1,126.7
				c4.7,0,7.9,0,12.6,1.6c3.2,0,6.3,1.6,7.9,1.6l1.6,1.6v1.6c0,0,0,1.6-1.6,0H360l0,0c-1.6-1.6-4.7-1.6-6.3-1.6l0,0
				C349,128.2,344.3,126.7,341.1,126.7C339.5,126.7,339.5,126.7,341.1,126.7L341.1,126.7z M311.1,158.2c0,0,4.7-1.6,11,0l0,0v1.6
				l0,0C315.9,159.8,311.1,159.8,311.1,158.2C309.6,159.8,309.6,158.2,311.1,158.2L311.1,158.2z M350.6,120.3c1.6,0,4.7,0,7.9,0
				c1.6,0,3.2,0,4.7,1.6c0,0,0,0,0,1.6v1.6l0,0l0,0c-1.6,0-3.2-1.6-3.2-1.6C355.3,121.9,353.7,120.3,350.6,120.3L350.6,120.3
				L350.6,120.3z M314.3,109.3c1.6,0,4.7,0,7.9,0c1.6,0,3.2,0,4.7,0l0,0v1.6l0,0c-1.6,0-3.2-1.6-4.7-1.6
				C319,110.9,315.9,110.9,314.3,109.3L314.3,109.3L314.3,109.3z M282.7,249.7c4.7-1.6,14.2-3.2,25.2-3.2l0,0c0,1.6,0,1.6,0,3.2l0,0
				l0,0C298.5,249.7,287.5,249.7,282.7,249.7L282.7,249.7L282.7,249.7z M281.2,177.1c0,0,12.6-3.2,36.3-1.6c0,0,1.6,0,0,1.6
				c0,1.6-1.6,1.6-1.6,3.2c0,0-1.6,1.6-1.6,0C298.5,177.1,281.2,177.1,281.2,177.1C279.6,177.1,279.6,177.1,281.2,177.1L281.2,177.1
				z M361.6,139.3v1.6c0,1.6-1.6,1.6-1.6,1.6c-3.2-1.6-4.7-1.6-7.9-3.2c-3.2-1.6-6.3-1.6-9.5-3.2c-6.3-1.6-11-3.2-17.4-4.7l0,0
				c6.3,0,12.6,0,18.9,1.6c3.2,0,6.3,1.6,11,1.6c1.6,0,4.7,1.6,6.3,1.6C361.6,137.7,361.6,137.7,361.6,139.3L361.6,139.3z
				 M360,396.4c-1.6-1.6-3.2-3.2-4.7-4.7c0,0,0-1.6-1.6-1.6c0,0,0,0-1.6-1.6c11-1.6,22.1-3.2,34.7-4.7c1.6,0,1.6,1.6,1.6,1.6l0,0
				c0,1.6,0,3.2,0,4.7c0,1.6,0,3.2,0,4.7c0,0,0,1.6-1.6,1.6c-4.7,0-7.9,0-12.6,0c0-3.2,1.6-4.7,1.6-6.3s0-3.2-1.6-3.2
				s-3.2,1.6-3.2,1.6c0,1.6,0,3.2,0,3.2c0,1.6,0,3.2-4.7,3.2C363.2,397.9,361.6,397.9,360,396.4L360,396.4z M120.3,508.4l-11,33.1
				h23.7L120.3,508.4L120.3,508.4z M5.1,571.5c-11,0-18.9-3.2-23.7-4.7v-17.4h1.6c1.6,7.9,6.3,15.8,22.1,15.8
				c11,0,18.9-6.3,18.9-15.8c0-9.5-7.9-15.8-22.1-22.1c-15.8-7.9-22.1-15.8-22.1-25.2c0-15.8,12.6-23.7,31.5-23.7
				c9.5,0,17.4,1.6,20.5,3.2v15.8h-1.6c-1.6-7.9-7.9-12.6-18.9-12.6s-17.4,4.7-18.9,14.2c0,7.9,4.7,12.6,14.2,17.4
				c22.1,9.5,30,17.4,30,30C38.3,560.4,25.6,571.5,5.1,571.5L5.1,571.5z M93.5,509.9c-1.6-6.3-4.7-9.5-15.8-9.5H73v55.2
				c0,9.5,1.6,11,9.5,11v1.6H49.3v-1.6c7.9,0,9.5-3.2,9.5-11v-55.2h-3.2c-11,0-14.2,3.2-15.8,9.5h-3.2v-14.2H95v14.2L93.5,509.9
				L93.5,509.9z M131.3,569.9v-3.2c4.7,0,7.9-1.6,7.9-4.7c0-1.6,0-3.2-1.6-4.7l-3.2-11h-28.4l-3.2,9.5c0,1.6-1.6,3.2-1.6,6.3
				c0,3.2,1.6,4.7,6.3,4.7v1.6H85.6v-1.6c6.3,0,7.9-4.7,11-12.6l22.1-58.4h9.5l22.1,59.9c3.2,7.9,4.7,11,11,11v1.6h-30V569.9z
				 M208.6,509.9c-1.6-6.3-4.7-9.5-15.8-9.5h-4.7v55.2c0,7.9,1.6,11,9.5,11v1.6h-33.1v-1.6c7.9,0,9.5-3.2,9.5-11v-55.2h-4.7
				c-11,0-14.2,3.2-15.8,9.5h0v-14.2h56.8v14.2L208.6,509.9L208.6,509.9z M213.3,569.9v-3.2c7.9,0,11-3.2,11-11v-45.7
				c0-7.9-3.2-11-11-11v-1.6h52.1v14.2h-1.6c-1.6-6.3-4.7-9.5-15.8-9.5h-6.3c-4.7,0-6.3,3.2-6.3,9.5v18.9H248c6.3,0,7.9-3.2,9.5-7.9
				h1.6v20.5h-1.6c0-4.7-3.2-7.9-9.5-7.9h-12.6v22.1c0,7.9,1.6,7.9,6.3,7.9h9.5c7.9,0,12.6-4.7,14.2-9.5h1.6v14.2L213.3,569.9
				L213.3,569.9z M322.2,571.5c-11,0-18.9-3.2-23.7-4.7v-17.4h1.6c1.6,7.9,6.3,15.8,22.1,15.8c11,0,18.9-6.3,18.9-15.8
				c0-9.5-7.9-15.8-22.1-22.1c-15.8-7.9-22.1-15.8-22.1-25.2c0-15.8,12.6-23.7,31.5-23.7c9.5,0,17.4,1.6,20.5,3.2v15.8h-1.6
				c-1.6-7.9-7.9-12.6-18.9-12.6c-11,0-17.4,4.7-18.9,14.2c0,7.9,4.7,12.6,14.2,17.4c22.1,9.5,30,17.4,30,30
				C355.3,560.4,344.3,571.5,322.2,571.5L322.2,571.5z M410.5,509.9c-1.6-6.3-4.7-9.5-15.8-9.5H390v55.2c0,7.9,3.2,11,9.5,11v1.6
				h-33.1v-1.6c7.9,0,9.5-3.2,9.5-11v-55.2h-4.7c-11,0-14.2,3.2-15.8,9.5h-1.6v-14.2h56.8L410.5,509.9L410.5,509.9L410.5,509.9z
				 M461,569.9L438.9,532c9.5,0,18.9-4.7,18.9-15.8s-6.3-14.2-15.8-14.2c-6.3,0-7.9,1.6-7.9,7.9v47.3c0,7.9,3.2,11,9.5,11v1.6h-33.1
				v-3.2c7.9,0,9.5-3.2,9.5-11v-45.7c0-6.3,0-11-7.9-11v-1.6h28.4c14.2,0,28.4,3.2,28.4,17.4c0,12.6-11,17.4-17.4,18.9l14.2,23.7
				c4.7,6.3,6.3,9.5,11,9.5c6.3,0,7.9-3.2,7.9-11v-45.7c0-7.9-3.2-11-9.5-11v-1.6h52.1v14.2h-1.6c-1.6-6.3-4.7-9.5-15.8-9.5h-6.3
				c-3.2-1.6-3.2,1.6-3.2,7.9v18.9H513c6.3,0,7.9-3.2,9.5-7.9h1.6v20.5h-1.6c0-4.7-3.2-7.9-9.5-7.9h-12.6v22.1
				c0,7.9,1.6,7.9,6.3,7.9h9.5c7.9,0,12.6-4.7,14.2-9.5h1.6v14.2h-71V569.9z M536.7,569.9v-3.2c7.9,0,9.5-3.2,9.5-11v-45.7
				c0-7.9-3.2-11-9.5-11v-1.6h52.1v14.2h-1.6c-1.6-6.3-4.7-9.5-15.8-9.5h-6.3c-4.7,0-6.3,3.2-6.3,9.5v18.9h12.6
				c6.3,0,7.9-3.2,7.9-7.9h1.6v20.5h-1.6c0-4.7-3.2-7.9-7.9-7.9h-12.6v22.1c0,7.9,1.6,7.9,6.3,7.9h9.5c9.5,0,12.6-4.7,14.2-9.5h1.6
				v14.2L536.7,569.9L536.7,569.9z M650.3,509.9c-1.6-6.3-4.7-9.5-15.8-9.5h-4.7v55.2c0,7.9,1.6,11,9.5,11v1.6h-33.1v-1.6
				c7.9,0,9.5-3.2,9.5-11v-55.2h-4.7c-11,0-14.2,3.2-15.8,9.5l0,0v-14.2h56.8v14.2L650.3,509.9L650.3,509.9z M653.4,562
				c1.6,0,3.2,0,3.2-1.6s-1.6-1.6-1.6-1.6h-1.6L653.4,562L653.4,562 M651.8,566.7L651.8,566.7l-1.6-9.5h3.2c1.6,0,3.2,1.6,3.2,3.2
				c0,1.6-1.6,1.6-1.6,3.2l3.2,3.2h-1.6l-3.2-3.2h-1.6L651.8,566.7L651.8,566.7z M647.1,562c0,3.2,3.2,6.3,6.3,6.3s6.3-3.2,6.3-6.3
				c0-3.2-3.2-6.3-6.3-6.3S647.1,558.8,647.1,562L647.1,562z M661.3,562c0,4.7-3.2,7.9-7.9,7.9s-7.9-3.2-7.9-7.9
				c0-4.7,3.2-7.9,7.9-7.9S661.3,558.8,661.3,562L661.3,562z M347.4,445.3c1.6,1.6,4.7,3.2,6.3,4.7c6.3,4.7,15.8,9.5,22.1,12.6
				c6.3,3.2,7.9,3.2,9.5,3.2c0,0,1.6,0,1.6,1.6h-1.6c0,0-6.3-1.6-11-3.2c-3.2-1.6-12.6-4.7-17.4-6.3c-3.2-1.6-11-6.3-12.6-6.3
				c-1.6-1.6-1.6-3.2-1.6-4.7C344.3,443.7,345.8,443.7,347.4,445.3L347.4,445.3z M394.7,439c0,0,0,1.6,1.6,1.6
				c1.6,1.6,9.5,6.3,17.4,11c7.9,4.7,20.5,9.5,30,12.6c1.6,0,1.6,1.6,1.6,1.6s-1.6,0-3.2,0c-7.9-3.2-25.2-9.5-33.1-12.6
				c-6.3-3.2-22.1-12.6-26.8-14.2h-1.6l0,0c1.6,1.6,20.5,15.8,37.9,23.7c1.6,0,1.6,1.6,1.6,1.6h-1.6c-4.7-1.6-17.4-7.9-28.4-14.2
				c-11-6.3-18.9-11-20.5-14.2c-1.6-3.2-3.2-6.3,0-9.5c3.2-3.2,7.9-3.2,9.5-1.6c3.2,1.6,4.7,1.6,6.3,1.6c1.6,0,3.2-1.6,6.3-1.6
				c6.3,1.6,11,9.5,33.1,20.5c15.8,7.9,31.5,14.2,33.1,14.2c1.6,0,1.6,1.6,0,1.6h-1.6c-3.2,0-18.9-4.7-34.7-12.6
				c-7.9-3.2-15.8-7.9-22.1-11C394.7,439,394.7,439,394.7,439L394.7,439z M467.3,465.8C468.9,465.8,468.9,465.8,467.3,465.8
				c0,1.6,0,1.6-1.6,1.6c-1.6,0-3.2,0-3.2,0c-1.6,0-1.6-1.6,0-1.6h1.6C464.1,464.2,467.3,464.2,467.3,465.8L467.3,465.8z
				 M293.8,237.1c3.2-1.6,11-1.6,15.8-1.6l0,0c0,1.6,0,1.6,0,3.2l0,0l0,0C304.8,238.6,296.9,237.1,293.8,237.1L293.8,237.1
				L293.8,237.1z M470.4,434.2c28.4,17.4,56.8,23.7,58.4,25.2c1.6,0,1.6,1.6,0,1.6s-37.9-11-56.8-20.5
				c-17.4-9.5-28.4-15.8-28.4-15.8c-1.6,0-1.6,0-1.6,0v1.6c1.6,1.6,7.9,6.3,17.4,12.6s26.8,14.2,28.4,15.8c1.6,0,1.6,1.6,0,1.6
				c-1.6,0-28.4-12.6-41-20.5c-12.6-7.9-22.1-15.8-23.7-20.5c-1.6-3.2-1.6-7.9,1.6-11c3.2-3.2,7.9-3.2,9.5-4.7
				c1.6-1.6,1.6-4.7,3.2-6.3c1.6-1.6,6.3-1.6,7.9-1.6c1.6,0,3.2-1.6,3.2-3.2s-1.6-3.2-4.7-3.2c-4.7,0-9.5,1.6-11,1.6
				c-1.6-1.6-1.6-3.2-3.2-3.2c-1.6-1.6-7.9,3.2-7.9,3.2H420v-1.6c0,0,6.3-7.9,9.5-6.3c3.2,0,3.2,3.2,4.7,4.7c1.6,0,4.7-1.6,9.5-1.6
				c0,0,3.2,0,4.7,1.6c3.2,1.6,4.7,4.7,3.2,7.9c0,0-1.6,3.2-4.7,3.2c-1.6,0-3.2,0-4.7,1.6c-4.7,0-4.7,3.2-4.7,4.7s-1.6,1.6-3.2,3.2
				c0,0-1.6,1.6,0,4.7C435.7,410.6,440.5,416.9,470.4,434.2L470.4,434.2z M427.9,437.4c0,0,0,1.6,9.5,6.3
				c7.9,4.7,20.5,9.5,39.4,15.8c4.7,1.6,3.2,1.6,0,1.6c-3.2-1.6-31.5-9.5-45.7-17.4c-14.2-6.3-23.7-12.6-28.4-17.4
				c-1.6-1.6-3.2-6.3,0-7.9c1.6-1.6,4.7-1.6,7.9,0c1.6,1.6,18.9,14.2,42.6,25.2c23.7,11,45.7,17.4,50.5,17.4
				c3.2,1.6,4.7,1.6,4.7,1.6s1.6,1.6-4.7,0c-4.7,0-22.1-4.7-48.9-14.2C443.6,445.3,435.7,440.5,427.9,437.4L427.9,437.4L427.9,437.4
				z M344.3,413.7c-3.2-1.6-6.3-3.2-9.5-4.7c3.2,0,6.3-1.6,9.5-1.6c1.6,0,1.6,1.6,3.2,1.6c1.6,1.6,0,3.2,0,4.7
				C347.4,413.7,345.8,413.7,344.3,413.7L344.3,413.7z M413.7,409c0,1.6-1.6,3.2-3.2,3.2s-3.2-1.6-3.2-3.2s1.6-3.2,3.2-3.2
				S413.7,407.4,413.7,409L413.7,409z M353.7,416.9c1.6-1.6,4.7-1.6,6.3,0c1.6,1.6,3.2,4.7,1.6,6.3c-1.6,1.6-3.2,1.6-6.3,0
				C353.7,423.2,352.1,420,353.7,416.9L353.7,416.9z M415.2,386.9c-1.6,1.6-4.7,3.2-7.9,7.9c-3.2,4.7-6.3,11-9.5,15.8
				c0-15.8,3.2-26.8,12.6-41h1.6C413.7,372.7,415.2,379,415.2,386.9L415.2,386.9z M349,405.8c3.2,0,6.3-1.6,9.5-1.6
				c1.6,3.2,3.2,7.9,0,7.9C355.3,413.7,352.1,409,349,405.8L349,405.8z M300.1,118.8c3.2,0,7.9-1.6,11-1.6c1.6,0,4.7,0,6.3,0
				c1.6,0,3.2,0,6.3,0c0,0,0,0,0,1.6s0,1.6-1.6,3.2c0,0,0,0-1.6,0c-3.2-1.6-7.9-1.6-11-1.6l0,0C308,118.8,304.8,118.8,300.1,118.8
				L300.1,118.8L300.1,118.8z M388.4,402.7c0,3.2,0,6.3,0,9.5c-6.3,0-11-4.7-12.6-9.5l0,0v-1.6C379,401.1,383.7,401.1,388.4,402.7
				C388.4,401.1,388.4,402.7,388.4,402.7L388.4,402.7z M216.5,215c3.2-4.7,3.2-9.5,3.2-15.8c0-3.2,0-4.7,0-6.3l14.2,3.2l0,0l9.5,1.6
				c0,0,1.6,1.6,1.6,4.7c0,1.6,0,1.6-1.6,1.6c-4.7,0-9.5,1.6-11,1.6l0,0c3.2,0,7.9,0,11,1.6c1.6,0,1.6,1.6,1.6,1.6l0,0
				c0,1.6-1.6,1.6-1.6,1.6c-11,0-17.4,3.2-18.9,3.2l0,0c3.2,0,11,0,15.8,0c0,0,1.6,1.6,0,1.6c-1.6,1.6-4.7,3.2-9.5,4.7
				c-9.5,1.6-17.4,3.2-20.5,4.7l0,0c11,0,26.8,1.6,36.3,1.6c0,0,1.6,0,1.6,1.6c0,0,0,1.6-1.6,1.6l0,0c-15.8-1.6-30-3.2-42.6-1.6
				C210.2,224.4,213.3,219.7,216.5,215L216.5,215z M237,170.8c3.2-6.3,4.7-14.2,3.2-23.7l25.2,7.9c0,1.6,0,1.6,0,3.2
				c0,0,0,1.6-1.6,1.6c-4.7,1.6-9.5,3.2-11,3.2l0,0c3.2,0,7.9,0,9.5,0c0,0,1.6,0,0,1.6v1.6l-1.6,1.6c-7.9,1.6-14.2,3.2-15.8,4.7l0,0
				c4.7,0,9.5,0,14.2,0c0,0,1.6,0,0,1.6c0,0,0,1.6-1.6,1.6l-1.6,1.6c-9.5,1.6-20.5,4.7-23.7,6.3l0,0c4.7,0,12.6,0,17.4,0l0,0
				c-12.6,7.9-28.4,6.3-28.4,6.3C229.1,181.9,233.8,175.6,237,170.8L237,170.8z M255.9,128.2c4.7-6.3,6.3-12.6,7.9-18.9l15.8,6.3
				l0,0v1.6c0,0,0,1.6-1.6,1.6c-1.6,0-3.2,0-4.7,1.6l0,0c1.6,0,3.2,0,4.7,0c0,0,0,0,0,1.6l0,0l-1.6,1.6c-3.2,0-6.3,0-7.9,0l0,0
				c1.6,0,4.7,1.6,6.3,1.6c0,0,0,0,0,1.6c-1.6,1.6-1.6,1.6-3.2,3.2h-1.6l-6.3-1.6c-1.6,0-1.6,0-1.6,1.6c0,1.6,0,1.6,1.6,1.6l4.7,1.6
				l0,0c-4.7,3.2-17.4,6.3-23.7,6.3l0,0l0,0C246.5,137.7,251.2,133,255.9,128.2L255.9,128.2z M295.4,90.4l97.8,36.3
				c0,1.6,1.6,3.2,1.6,6.3s0,3.2,0,3.2c-4.7-1.6-6.3-3.2-12.6-3.2l0,0c6.3,3.2,9.5,4.7,12.6,7.9c1.6,1.6,1.6,3.2,1.6,3.2
				s-1.6,1.6-1.6,0c-7.9-3.2-14.2-6.3-20.5-6.3l0,0c7.9,3.2,15.8,7.9,22.1,12.6c1.6,0,1.6,1.6,1.6,3.2h-1.6
				c-9.5-4.7-18.9-7.9-28.4-9.5l0,0c9.5,4.7,18.9,9.5,26.8,15.8c1.6,1.6,1.6,1.6,1.6,3.2s-1.6,1.6-3.2,0l0,0
				c-41-28.4-94.6-36.3-118.3-31.5C295.4,115.6,295.4,98.3,295.4,90.4L295.4,90.4z M333.2,150.3v-9.5c1.6,0,1.6,0,3.2,1.6v9.5
				L333.2,150.3L333.2,150.3z M300.1,136.1C300.1,136.1,301.7,136.1,300.1,136.1c7.9,0,14.2,1.6,22.1,3.2c3.2,0,6.3,1.6,9.5,1.6l0,0
				v3.2C323.8,142.4,303.2,137.7,300.1,136.1C301.7,137.7,300.1,136.1,300.1,136.1L300.1,136.1z M271.7,151.9l-26.8-7.9
				c9.5,0,18.9,0,26.8,1.6C271.7,147.2,271.7,148.7,271.7,151.9L271.7,151.9z M352.1,159.8l7.9,9.5c-3.2,0-6.3,0-7.9,0l0,0
				c3.2,0,9.5,1.6,12.6,4.7l18.9,20.5l0,0l0,0l0,0c-4.7,0-9.5,0-12.6,0l0,0c3.2,1.6,6.3,3.2,9.5,3.2c1.6,0,3.2,3.2,1.6,4.7
				c0,1.6-1.6,3.2-3.2,1.6c-7.9-1.6-14.2-1.6-18.9-1.6l0,0c6.3,1.6,11,4.7,15.8,6.3c1.6,1.6,1.6,3.2,1.6,4.7
				c-1.6,1.6-3.2,1.6-4.7,1.6c-48.9-26.8-102.5-26.8-119.9-23.7c26.8-28.4,23.7-52.1,22.1-58.4L352.1,159.8L352.1,159.8z
				 M388.4,199.2l18.9,20.5v1.6c-1.6,0-4.7,1.6-6.3,1.6v1.6c3.2,0,6.3,0,7.9,0c1.6,0,1.6,0,3.2,1.6l3.2,4.7v1.6
				c-4.7,0-9.5,0-12.6,1.6v1.6c4.7,0,11,1.6,15.8,3.2c1.6,0,1.6,1.6,3.2,1.6l3.2,3.2v1.6c-6.3-1.6-14.2-1.6-18.9,0v1.6
				c6.3,0,15.8,1.6,23.7,4.7c1.6,0,1.6,1.6,3.2,1.6l1.6,1.6v1.6c-7.9-1.6-18.9-3.2-25.2-1.6v1.6c9.5,0,20.5,3.2,31.5,6.3
				c1.6,0,1.6,1.6,3.2,1.6l9.5,9.5l0,0l0,0c-9.5-4.7-18.9-7.9-26.8-9.5c-11-1.6-22.1-1.6-33.1,1.6
				C382.1,235.5,385.3,211.8,388.4,199.2L388.4,199.2z M415.2,268.6l3.2,4.7v1.6c-7.9-1.6-15.8-1.6-23.7,0v1.6
				c7.9,0,18.9,1.6,30,4.7c1.6,0,1.6,1.6,3.2,1.6l6.3,7.9c-7.9-3.2-15.8-6.3-23.7-7.9c-12.6-1.6-25.2,0-36.3,3.2
				c-6.3-20.5-6.3-42.6-1.6-64.7l11,11c0,11,1.6,22.1,4.7,31.5c0,1.6,1.6,1.6,1.6,1.6h1.6c7.9-1.6,14.2,0,20.5,1.6
				C412.1,267,413.7,268.6,415.2,268.6L415.2,268.6z M410.5,301.7c1.6,0,1.6,1.6,3.2,1.6l4.7,6.3c-17.4-9.5-36.3-11-58.4-4.7
				c-6.3-22.1-9.5-45.7-6.3-66.2l7.9,7.9c1.6,1.6,1.6,1.6,1.6,4.7c0,12.6,1.6,26.8,4.7,39.4c0,0,0,1.6,1.6,1.6h1.6
				c1.6,0,1.6,0,3.2-1.6c9.5-3.2,18.9-1.6,25.2,0c1.6,0,1.6,0,3.2,1.6l1.6,3.2v1.6c-7.9-1.6-15.8-1.6-23.7,0v1.6
				C390,297,401,297,410.5,301.7L410.5,301.7z M415.2,314.4c0,0,0-1.6,0-3.2c3.2,1.6,4.7,3.2,6.3,4.7L415.2,314.4L415.2,314.4z
				 M385.3,309.6c0-1.6,0-3.2,0-4.7c6.3,1.6,11,4.7,17.4,7.9L385.3,309.6L385.3,309.6z M331.6,295.4v-3.2c9.5,1.6,17.4,4.7,25.2,7.9
				c0,1.6,0,1.6,1.6,3.2C349,300.2,341.1,297,331.6,295.4L331.6,295.4z M328.5,300.2l-7.9-1.6l1.6-12.6c1.6,0,4.7,1.6,7.9,1.6
				L328.5,300.2L328.5,300.2z M319,292.3c-4.7,0-11-1.6-15.8-1.6c-12.6-1.6-25.2-1.6-39.4,0l-14.2-1.6c22.1-3.2,47.3-1.6,69.4,1.6
				V292.3L319,292.3z M350.6,224.4l11,3.2l0,0c0,3.2,0,6.3,0,9.5l3.2,3.2v1.6h-1.6l-26.8-30v-1.6h1.6l3.2,3.2
				c6.3,3.2,11,6.3,17.4,9.5l-11-3.2L350.6,224.4L350.6,224.4z M328.5,215l1.6-11c1.6,0,3.2,1.6,4.7,1.6v11L328.5,215L328.5,215z
				 M293.8,203.9v-3.2c11,1.6,20.5,4.7,31.5,7.9v4.7C315.9,208.7,304.8,205.5,293.8,203.9L293.8,203.9z M287.5,205.5v-7.9
				c1.6,0,3.2,0,4.7,0v4.7l0,0v3.2H287.5L287.5,205.5z M262.2,197.6c7.9,0,15.8,0,23.7,1.6v3.2C276.4,199.2,268.5,199.2,262.2,197.6
				L262.2,197.6z M246.5,196.1l-20.5-4.7c7.9,0,15.8,0,23.7,0C249.6,192.9,248,194.5,246.5,196.1L246.5,196.1z M248,200.8L248,200.8
				L248,200.8l93.1,22.1l11,12.6c0,1.6,0,4.7-1.6,7.9c0,1.6,0,1.6-1.6,1.6c-3.2,0-6.3,0-9.5,1.6l0,0c3.2,0,6.3,1.6,9.5,1.6
				c1.6,0,1.6,1.6,1.6,1.6c0,1.6,0,1.6,0,3.2c0,1.6-1.6,1.6-1.6,1.6c-7.9,0-15.8,0-22.1,1.6l0,0c6.3,1.6,14.2,1.6,22.1,3.2
				c1.6,0,1.6,1.6,1.6,1.6v1.6c0,1.6,0,1.6-1.6,1.6c-14.2-1.6-26.8-1.6-34.7,0l0,0c9.5,1.6,22.1,3.2,33.1,4.7c1.6,0,1.6,1.6,1.6,3.2
				s-1.6,1.6-3.2,1.6c-18.9-1.6-37.9-1.6-45.7,0l0,0c12.6,1.6,26.8,3.2,42.6,6.3c1.6,0,1.6,1.6,1.6,3.2l0,0
				c-1.6,1.6-1.6,1.6-3.2,1.6c-1.6,0-1.6,0-3.2,0c-53.6-11-96.2-4.7-107.3-1.6C268.5,232.3,251.2,202.4,248,200.8L248,200.8z
				 M189.7,203.9l7.9,1.6c3.2,9.5,3.2,17.4,1.6,25.2l34.7,7.9l0,0c0,1.6,1.6,3.2,1.6,4.7v1.6c-3.2,1.6-6.3,3.2-6.3,3.2l0,0
				c1.6,0,4.7,0,7.9-1.6h1.6c0,1.6,0,1.6,0,3.2v1.6c-4.7,1.6-9.5,4.7-11,6.3l0,0c1.6,0,6.3-1.6,11-1.6c0,0,1.6,0,0,0v1.6
				c0,0,0,1.6-1.6,1.6c-7.9,3.2-12.6,7.9-15.8,9.5l0,0c3.2-1.6,7.9-3.2,12.6-4.7l0,0c0,1.6-1.6,3.2-1.6,3.2s0,1.6-1.6,1.6
				c-7.9,3.2-12.6,7.9-17.4,11l0,0c3.2-1.6,6.3-3.2,11-4.7l0,0c-1.6,1.6-3.2,3.2-4.7,4.7l203.5,31.5l3.2-4.7l-12.6-14.2l0,0
				l-7.9-3.2v-1.6h1.6l9.5,11c0-3.2,0-6.3,0-9.5c7.9,1.6,17.4,4.7,23.7,9.5l1.6,1.6l1.6-3.2l-31.5-34.7c14.2,0,28.4,4.7,45.7,15.8
				l1.6,1.6l1.6-3.2L339.5,142.4v-1.6h1.6l4.7,4.7c15.8,6.3,31.5,12.6,45.7,22.1l-34.7-11l4.7,4.7l34.7,11c0,1.6,1.6,3.2,1.6,4.7
				c0,1.6,0,1.6-1.6,1.6c-4.7,0-9.5,0-11,0l0,0c3.2,1.6,9.5,3.2,12.6,6.3l1.6,1.6l0,0c0,0,0,1.6-1.6,1.6c-6.3-1.6-11-1.6-15.8-1.6
				l3.2,3.2c4.7,3.2,11,4.7,14.2,7.9l0,0l0,0l0,0c-3.2,0-6.3-1.6-7.9-1.6l11,12.6c1.6-11,1.6-22.1-3.2-34.7h1.6c1.6,0,1.6,0,1.6-1.6
				c0-1.6,0-1.6-1.6-1.6l-7.9-1.6c6.3-17.4,3.2-33.1,1.6-41l3.2,1.6c1.6,0,1.6,0,1.6-1.6c0-1.6,0-1.6-1.6-1.6L338,104.6l4.7-30
				c0-1.6-1.6-3.2-3.2-3.2c-1.6,0-3.2,1.6-3.2,3.2l-1.6,26.8l-47.3-17.4c-1.6,0-1.6,0-1.6,1.6s0,1.6,1.6,1.6l4.7,1.6
				c0,3.2,1.6,12.6-4.7,23.7l-30-11c-1.6,0-1.6,0-1.6,1.6s0,1.6,1.6,1.6l4.7,1.6c0,14.2-11,23.7-23.7,33.1l-6.3,0
				c-1.6,0-1.6,0-1.6,1.6c0,1.6,0,1.6,1.6,1.6l6.3,1.6c0,20.5-3.2,28.4-20.5,42.6l-9.5-1.6c-1.6,0-1.6,0-1.6,1.6
				c0,1.6,0,1.6,1.6,1.6l9.5,1.6c0,1.6,1.6,4.7,1.6,7.9s0,4.7-1.6,7.9l-25.2-6.3c-1.6,0-1.6,0-1.6,1.6
				C188.1,203.9,188.1,203.9,189.7,203.9L189.7,203.9z M334.8,437.4c1.6,0,1.6,1.6,1.6,3.2c-1.6,1.6-3.2,1.6-3.2,0
				c-1.6,0-1.6-3.2-1.6-3.2S333.2,437.4,334.8,437.4L334.8,437.4z M259.1,467.3c1.6,0,4.7-1.6,4.7,0c1.6,1.6-3.2,3.2-3.2,3.2
				c-1.6,0-9.5,4.7-20.5,4.7c-12.6,0-28.4-6.3-34.7-7.9l0,0c0,0,0,0,1.6,0c6.3,1.6,20.5,4.7,30,4.7
				C248,472.1,254.4,468.9,259.1,467.3L259.1,467.3z M391.6,468.9H390c0,0,0,0,0-1.6l0,0C391.6,467.3,391.6,467.3,391.6,468.9
				c1.6-1.6,1.6-1.6,3.2,0c0,0,0,0,0,1.6c0,0,0,0-1.6,0C393.2,470.5,393.2,468.9,391.6,468.9L391.6,468.9z M196,402.7l7.9-3.2
				c0,0,1.6,0,1.6,1.6c-1.6,3.2-4.7,6.3-7.9,9.5H196c0-1.6,0-3.2,0-4.7C194.4,404.3,196,402.7,196,402.7L196,402.7z M194.4,396.4
				c-1.6,0-1.6,0-1.6-1.6s0-1.6-1.6-3.2c0-1.6,0-1.6,1.6-1.6l15.8-4.7c0,0,1.6,0,1.6,1.6v1.6c0,1.6-1.6,1.6-1.6,3.2L194.4,396.4
				L194.4,396.4z M188.1,382.2c0,0,0-1.6-1.6-1.6c0-1.6,0-1.6,1.6-1.6l20.5-6.3c1.6,0,1.6,0,1.6,1.6l0,0c0,1.6,0,1.6-1.6,3.2
				l-18.9,7.9C189.7,383.8,188.1,383.8,188.1,382.2L188.1,382.2z M183.4,371.1l-1.6-1.6V368l25.2-6.3c1.6,0,1.6,0,1.6,1.6l0,0
				c0,1.6,0,1.6-1.6,1.6l-22.1,7.9C185,372.7,183.4,372.7,183.4,371.1L183.4,371.1z M175.5,361.7c0-1.6-1.6-1.6-1.6-3.2v-1.6l11,1.6
				l0,0l-6.3,3.2C177.1,361.7,177.1,361.7,175.5,361.7L175.5,361.7z M218.1,350.6c1.6,1.6,1.6,3.2,3.2,4.7c0,1.6,1.6,1.6,1.6,3.2
				l-52.1-4.7C186.5,350.6,202.3,349.1,218.1,350.6L218.1,350.6z M172.3,345.9c1.6-1.6,3.2-4.7,4.7-6.3c0-1.6,1.6-1.6,3.2-1.6
				l20.5-6.3c1.6,0,1.6,0,1.6,1.6l0,0c0,1.6,0,1.6-1.6,1.6L172.3,345.9L172.3,345.9L172.3,345.9z M183.4,327c0-1.6,1.6-3.2,1.6-4.7
				c0-1.6,1.6-1.6,1.6-1.6l7.9-1.6c1.6,0,1.6,0,1.6,1.6l0,0c0,1.6,0,1.6-1.6,1.6L183.4,327C183.4,327,181.8,327,183.4,327L183.4,327
				z M309.6,454.7c3.2-3.2,6.3-9.5,3.2-14.2c-1.6-3.2-4.7-4.7-9.5-4.7c-3.2,0-3.2,0-4.7,0h-1.6v-1.6c0-1.6,1.6-1.6,1.6-3.2
				c1.6-1.6,4.7-4.7,9.5-4.7c6.3,0,15.8,3.2,22.1,3.2c1.6,0,4.7,0,7.9-3.2c3.2-3.2,4.7-7.9,1.6-11c-1.6-1.6-3.2-1.6-4.7-1.6
				s-4.7,1.6-6.3,1.6c-1.6,0-3.2-1.6-3.2-1.6s-1.6-1.6-3.2-3.2c-7.9,1.6-15.8,4.7-23.7,7.9c-26.8,9.5-61.5,25.2-75.7,31.5
				c0,0-3.2,1.6-3.2,0c0,0,0-1.6,1.6-1.6c22.1-11,58.4-28.4,78.9-34.7c4.7-1.6,7.9-3.2,12.6-4.7c0-1.6-4.7-3.2-6.3-1.6
				c-1.6,0-3.2,0-3.2,0c0-1.6,0-1.6,0-3.2c1.6-1.6,4.7-1.6,6.3,0c1.6,0,1.6,1.6,3.2,1.6s3.2,0,3.2,0l1.6-1.6c0,0,0-1.6,1.6-1.6
				s1.6,0,1.6,1.6v1.6c4.7-1.6,11-3.2,15.8-3.2c0,0,0,0-1.6-1.6c-3.2,0-3.2-1.6-3.2-3.2c0,0,0-1.6,3.2-1.6c3.2,0,4.7,1.6,4.7,3.2
				c0,0,0,1.6,1.6,1.6l0,0c3.2,0,6.3-1.6,9.5-1.6c0-1.6-3.2-3.2-3.2-4.7c-1.6-3.2-6.3-1.6-7.9-3.2c0,0,0-1.6,0-3.2
				c-15.8,3.2-30,7.9-44.2,12.6c-28.4,11-91.5,42.6-93.1,42.6c-1.6,0-1.6,0-1.6,0s0,0,0-1.6c12.6-6.3,69.4-36.3,96.2-47.3
				c26.8-11,53.6-17.4,83.6-18.9c1.6,0,1.6,0,1.6-1.6c0-4.7,1.6-7.9,1.6-9.5s0-1.6-1.6-1.6c-23.7,4.7-55.2,14.2-80.4,23.7
				c-26.8,11-61.5,31.5-78.9,41c-12.6,6.3-22.1,11-28.4,14.2c1.6-7.9,1.6-15.8,1.6-23.7c11-6.3,23.7-11,37.9-15.8
				c0,4.7,0,9.5,1.6,14.2c1.6,0,1.6-1.6,3.2-1.6c0-4.7,0-9.5-1.6-12.6l0,0c0-3.2-1.6-6.3-1.6-11l0,0c-3.2-15.8-7.9-30-12.6-39.4
				c-7.9-17.4-17.4-30-31.5-42.6l-26.8-3.2c-1.6,0-1.6,0-1.6,1.6c0,1.6,0,1.6,1.6,1.6l17.4,1.6c0,1.6,0,1.6-1.6,3.2
				c-4.7,14.2-12.6,26.8-22.1,34.7l-11-1.6c-1.6,0-1.6,0-1.6,1.6c0,1.6,0,1.6,1.6,1.6l17.4,1.6c20.5,23.7,28.4,52.1,23.7,86.8l0,0
				c-4.7-1.6-7.9-1.6-11-3.2c-1.6,0-3.2,0-3.2,0v3.2c1.6,7.9-18.9,7.9-33.1,6.3c-18.9-1.6-30-3.2-34.7-3.2h-1.6c0,0,0,0,1.6,0
				c6.3,0,20.5,3.2,39.4,6.3c14.2,1.6,25.2,0,30-1.6c1.6-1.6,3.2-4.7,1.6-7.9c0-1.6-1.6-1.6-1.6-3.2h1.6c3.2,0,6.3,1.6,11,3.2
				c0,0,0,0,1.6,0l0,0c0,0,0,0,1.6,0l0,0l0,0l0,0l0,0l0,0c7.9,3.2,17.4,6.3,25.2,7.9c15.8,3.2,23.7,1.6,28.4,0
				c1.6-1.6,3.2-1.6,3.2-3.2c0-1.6,0-3.2-1.6-3.2c0,0-1.6,0-1.6-1.6s7.9-1.6,11-1.6c3.2,0,9.5,0,15.8,1.6
				c15.8,1.6,22.1,1.6,26.8-3.2c0,0,1.6-1.6,1.6,0v1.6c-1.6,3.2-4.7,7.9-15.8,7.9c-3.2,0-4.7,0-7.9-1.6h-1.6c0,0,0,0,1.6,1.6
				c3.2,1.6,7.9,3.2,14.2,3.2C301.7,457.9,306.4,456.3,309.6,454.7L309.6,454.7z M259.1,459.5c0,1.6-1.6,3.2-1.6,3.2
				c-1.6,0-9.5,4.7-20.5,4.7c-6.3,0-12.6-1.6-20.5-3.2c-3.2-1.6-9.5-3.2-15.8-3.2c0,0-3.2,0-3.2-1.6c0,0,1.6,0,3.2,0
				c3.2,0,4.7,0,7.9,1.6c3.2,0,15.8,3.2,23.7,3.2c9.5,0,18.9-1.6,22.1-3.2C255.9,459.5,259.1,457.9,259.1,459.5L259.1,459.5z
				 M287.5,126.7c4.7-1.6,9.5-1.6,14.2-1.6c3.2,0,6.3,0,9.5,0c3.2,0,6.3,0,7.9,1.6c0,0,1.6,0,0,1.6c0,1.6-1.6,1.6-1.6,3.2
				c0,0-1.6,1.6-1.6,0c-4.7-1.6-11-1.6-15.8-1.6C296.9,126.7,292.2,126.7,287.5,126.7L287.5,126.7L287.5,126.7z M412.1,470.5
				c-1.6,0-22.1-6.3-37.9-14.2c-15.8-7.9-18.9-11-20.5-11c-1.6-1.6-3.2-4.7-1.6-6.3c1.6-1.6,4.7,0,6.3,0c0,0,4.7,4.7,14.2,11
				c15.8,9.5,36.3,18.9,39.4,18.9c1.6,0,1.6,1.6,1.6,1.6C415.2,470.5,413.7,470.5,412.1,470.5L412.1,470.5z M374.2,342.7
				c1.6,0,1.6,1.6,1.6,1.6c0,1.6,0,1.6-1.6,3.2c0,1.6-1.6,1.6-1.6,1.6c-4.7,0-9.5-1.6-14.2-1.6c-7.9,0-14.2,0-20.5,0l0,0
				C341.1,345.9,355.3,342.7,374.2,342.7L374.2,342.7z M309.6,320.7L309.6,320.7c1.6-1.6,7.9-4.7,15.8-6.3c0,0,0,0,1.6,0
				c0,1.6,1.6,1.6,1.6,3.2l0,0C319,319.1,314.3,319.1,309.6,320.7L309.6,320.7z M306.4,330.1c1.6-1.6,9.5-6.3,22.1-7.9h1.6
				c0,1.6,0,1.6,1.6,3.2l0,0C319,328.5,311.1,330.1,306.4,330.1L306.4,330.1L306.4,330.1z M375.8,339.6c-3.2,0-4.7,0-7.9,0
				c-6.3,0-12.6,0-18.9,0l0,0c3.2-1.6,14.2-3.2,26.8-3.2c0,0,1.6,0,1.6,1.6C377.4,336.4,377.4,338,375.8,339.6
				C377.4,339.6,375.8,339.6,375.8,339.6L375.8,339.6z M379,322.2L379,322.2c-1.6,0-1.6,0-1.6,0c-4.7-1.6-9.5-1.6-14.2-1.6l0,0
				c1.6,0,7.9-1.6,15.8-1.6l0,0C379,320.7,379,320.7,379,322.2L379,322.2z M300.1,342.7c3.2-1.6,12.6-7.9,31.5-11c0,0,1.6,0,1.6,1.6
				s0,3.2,0,3.2s0,1.6-1.6,1.6C315.9,338,304.8,341.2,300.1,342.7L300.1,342.7L300.1,342.7z M377.4,330.1c-1.6,0-1.6,0-3.2,0
				c-6.3,0-11-1.6-15.8-1.6l0,0c3.2,0,9.5-3.2,20.5-1.6l0,0C379,328.5,379,328.5,377.4,330.1C379,330.1,377.4,330.1,377.4,330.1
				L377.4,330.1z M289.1,356.9c4.7-3.2,17.4-11,42.6-14.2c1.6,0,1.6,0,1.6,1.6c0,1.6,0,1.6,0,3.2s-1.6,1.6-1.6,1.6
				C311.1,350.6,295.4,355.4,289.1,356.9L289.1,356.9L289.1,356.9z M110.8,459.5C109.2,459.5,109.2,457.9,110.8,459.5
				C109.2,457.9,110.8,457.9,110.8,459.5c3.2-1.6,11-1.6,37.9,3.2c22.1,3.2,31.5-1.6,33.1-1.6c1.6,0,3.2,0,3.2,1.6s0,3.2-3.2,4.7
				c-7.9,3.2-22.1,3.2-36.3,0C131.3,462.6,121.9,459.5,110.8,459.5L110.8,459.5z M186.5,271.8l12.6,1.6l0,0l-11,1.6
				c0,0-1.6,0-1.6-1.6C186.5,274.9,185,273.3,186.5,271.8C185,271.8,185,271.8,186.5,271.8L186.5,271.8z M207,263.9
				c0,3.2,0,4.7-1.6,7.9l-18.9-3.2C194.4,267,200.7,265.5,207,263.9L207,263.9z M192.8,256c1.6-1.6,1.6-3.2,1.6-3.2
				c0-1.6,1.6-1.6,3.2-1.6h3.2c1.6,0,1.6,0,1.6,1.6c0,0,0,0,0,1.6c0,1.6-1.6,3.2-1.6,3.2L192.8,256C192.8,257.6,192.8,256,192.8,256
				L192.8,256z M202.3,284.4l-12.6,3.2c0,0-1.6,0-1.6-1.6v-1.6c0,0,0-1.6,1.6-1.6l12.6-3.2c0,0,1.6,0,1.6,1.6L202.3,284.4
				C203.9,282.8,203.9,284.4,202.3,284.4L202.3,284.4z M199.1,295.4L199.1,295.4c0,1.6-1.6,1.6-1.6,1.6l-7.9,1.6c0,0-1.6,0-1.6-1.6
				s0-1.6,0-3.2c0,0,0-1.6,1.6-1.6l7.9-1.6c0,0,1.6,0,1.6,1.6l0,0C199.1,293.8,199.1,295.4,199.1,295.4L199.1,295.4z M207,306.5
				c11-3.2,25.2-6.3,39.4-7.9c3.2,1.6,4.7,4.7,6.3,6.3c-14.2-1.6-31.5,0-42.6,1.6h-1.6C208.6,306.5,208.6,306.5,207,306.5
				C205.5,306.5,205.5,306.5,207,306.5L207,306.5z M167.6,268.6l12.6,3.2c4.7,11,4.7,23.7,3.2,36.3h4.7l6.3,1.6l0,0l64.7,9.5
				c0,1.6,1.6,1.6,1.6,3.2s0,3.2-1.6,4.7c-4.7,1.6-7.9,4.7-11,6.3l0,0c3.2-1.6,7.9-3.2,11-3.2c1.6,0,3.2,0,4.7,1.6l0,0
				c0,1.6,0,3.2-1.6,4.7c-7.9,3.2-12.6,6.3-15.8,9.5l0,0c4.7-1.6,11-4.7,17.4-6.3c1.6,0,3.2,0,3.2,1.6s0,3.2-1.6,4.7
				c-9.5,4.7-17.4,9.5-22.1,12.6l0,0c6.3-3.2,14.2-6.3,22.1-7.9c1.6,0,3.2,0,3.2,1.6s0,3.2-1.6,3.2c-11,4.7-20.5,11-26.8,15.8
				c0,0,0,1.6,0,0c7.9-3.2,15.8-6.3,25.2-9.5c1.6,0,3.2,0,3.2,1.6c0,1.6-1.6,3.2-1.6,3.2c-12.6,6.3-23.7,11-30,17.4v1.6
				c18.9-9.5,47.3-17.4,74.1-20.5v4.7c-1.6,0-1.6,0-3.2,0c-26.8,3.2-52.1,9.5-71,18.9v1.6l0,0c0,3.2,1.6,7.9,1.6,11
				c11-3.2,20.5-4.7,31.5-4.7l0,0l1.6-17.4c3.2,0,6.3-1.6,9.5-1.6v15.8c6.3-3.2,14.2-6.3,20.5-9.5c4.7-1.6,7.9-3.2,12.6-4.7
				l1.6-18.9l0,0c3.2,0,6.3-1.6,9.5-1.6v11v4.7c4.7-1.6,9.5-3.2,14.2-4.7c-4.7,0-7.9,0-12.6,0v-4.7c11,0,22.1-1.6,31.5,0
				c11-3.2,23.7-4.7,34.7-4.7l28.4-33.1l0,0v11v1.6c-3.2,6.3-11,14.2-18.9,28.4c-11,17.4-12.6,30-12.6,45.7c1.6,0,1.6,0,3.2,0h1.6
				c0-22.1,3.2-30,22.1-56.8c6.3-9.5,9.5-12.6,11-15.8c0-1.6,0-1.6,0-3.2v-7.9v-1.6l39.4-52.1v-1.6h-1.6l-44.2,50.5l0,0L420,327
				c-7.9-1.6-14.2,0-17.4,0l0,0c4.7,1.6,9.5,1.6,12.6,3.2v1.6c0,0-1.6,1.6-3.2,1.6c-9.5,0-15.8,0-18.9,0l0,0
				c4.7,1.6,9.5,1.6,14.2,3.2v1.6l-1.6,1.6c-11,0-18.9,1.6-22.1,1.6l0,0c4.7,1.6,11,1.6,17.4,3.2c0,0,0,0,0,1.6l0,0h-1.6
				c-11,0-20.5,1.6-23.7,1.6l0,0c6.3,0,11,1.6,17.4,3.2c1.6,0,0,1.6,0,3.2c-1.6,1.6-3.2,1.6-4.7,0c-12.6-1.6-28.4-3.2-41-3.2
				c-30,0-61.5,9.5-66.2,11c-9.5-48.9-34.7-69.4-36.3-71l0,0h-3.2l0,0l-31.5-4.7c-1.6,0-1.6,0-1.6,1.6c0,1.6,0,1.6,1.6,1.6h3.2
				c-3.2,1.6-6.3,4.7-11,6.3l0,0c6.3-1.6,12.6-4.7,18.9-6.3l9.5,1.6c-12.6,3.2-25.2,6.3-36.3,11c6.3-7.9,11-18.9,12.6-28.4
				c3.2-15.8,1.6-30-4.7-39.4l-14.2-3.2c-1.6,0-1.6,0-1.6,1.6c0,1.6,0,1.6,1.6,1.6l7.9,1.6c-3.2,11-11,20.5-17.4,28.4l-9.5,0
				c-1.6,0-1.6,0-1.6,1.6C166,267,167.6,268.6,167.6,268.6"/>
		</g>
	</g>
</g>
</svg>
