<svg width="765" height="448" viewBox="0 0 765 448" fill="none" xmlns="http://www.w3.org/2000/svg">
<path d="M421.803 189.958L435.975 220.929L460.323 194.217C460.323 194.217 473.761 216.877 499.774 200.358C524.214 228.236 529.387 251.773 529.387 251.773C529.387 251.773 499.911 225.249 478.289 234.374C464.367 214.625 433.197 228.54 433.197 228.54C433.197 228.54 420.979 209.102 398.103 219.947C390.313 206.916 365.175 194.966 347.945 207.178C358.415 190.497 389.421 176.838 389.421 176.838C389.421 176.838 398.622 199.45 421.803 189.958Z" fill="#262A4E" stroke="#262A4E" stroke-width="5" stroke-linecap="round" stroke-linejoin="round"/>
<path d="M657.366 282.035L674.72 296.337L682.751 272.881C682.751 272.881 697.378 282.412 709.234 264.576C732.203 273.897 741.873 286.468 741.873 286.468C741.873 286.468 716.105 279.491 704.996 291.549C690.857 283.915 675.049 301.755 675.049 301.755C675.049 301.755 662.066 293.79 650.637 307.263C642.185 301.801 623.119 302.264 615.613 314.842C617.65 301.634 633.425 283.997 633.425 283.997C633.425 283.997 645.376 294.787 657.366 282.035Z" fill="#262A4E" stroke="#262A4E" stroke-width="5" stroke-linecap="round" stroke-linejoin="round"/>
<path d="M699.106 205.339L695.05 213.808L688 206.466C688 206.466 684.147 212.66 676.627 208.108C669.606 215.72 668.138 222.162 668.138 222.162C668.138 222.162 676.613 214.926 682.859 217.448C686.854 212.053 695.858 215.896 695.858 215.896C695.858 215.896 699.363 210.584 705.972 213.578C708.205 210.016 715.444 206.768 720.426 210.131C717.389 205.551 708.432 201.778 708.432 201.778C708.432 201.778 705.801 207.962 699.106 205.339Z" fill="#262A4E" stroke="#262A4E" stroke-width="5" stroke-linecap="round" stroke-linejoin="round"/>
<path d="M659.628 152.669L664.687 162.184L672.639 153.471C672.639 153.471 677.374 160.391 685.981 154.851C694.469 163.254 696.429 170.563 696.429 170.563C696.429 170.563 686.257 162.654 679.06 165.814C674.19 159.814 663.822 164.609 663.822 164.609C663.822 164.609 659.528 158.683 651.924 162.4C649.18 158.422 640.605 155.023 634.915 159.09C638.287 153.715 648.602 149.003 648.602 149.003C648.602 149.003 651.91 155.966 659.628 152.669Z" fill="#262A4E" stroke="#262A4E" stroke-width="5" stroke-linecap="round" stroke-linejoin="round"/>
<path d="M124.065 166.967L154.886 216.034L182.21 164.282C182.21 164.282 209.284 199.391 242.328 164.562C287.293 205.716 302.467 244.449 302.467 244.449C302.467 244.449 250.513 206.898 221.569 228.008C194.715 197.98 153.233 229.706 153.233 229.706C153.233 229.706 128.99 199.768 98.7493 224.129C83.0872 203.956 42.2018 190.096 20.7213 215.328C30.8058 184.232 72.1271 152.983 72.1271 152.983C72.1271 152.983 92.9414 189.102 124.065 166.967Z" fill="#262A4E" stroke="#262A4E" stroke-width="5" stroke-linecap="round" stroke-linejoin="round"/>
<path d="M697.766 106.483L709.325 115.441L710.16 101.039C710.16 101.039 719.523 107.032 723.276 96.1262C737.132 102.057 744.263 109.886 744.263 109.886C744.263 109.886 729.241 105.379 725.026 112.728C716.212 107.908 710.316 118.785 710.316 118.785C710.316 118.785 702.079 113.769 697.902 121.988C692.499 118.553 682.228 118.687 680.045 126.384C679.168 118.255 685.077 107.503 685.077 107.503C685.077 107.503 693.177 114.252 697.766 106.483Z" fill="#262A4E" stroke="#262A4E" stroke-width="5" stroke-linecap="round" stroke-linejoin="round"/>
<path d="M553.476 143.522L542.979 157.791L536.162 141.359C536.162 141.359 527.149 151.453 518.179 140.056C503.66 151.582 498.112 163.057 498.112 163.057C498.112 163.057 514.626 152.792 522.729 159.906C531.542 151.359 543.116 162.003 543.116 162.003C543.116 162.003 551.146 153.423 559.552 161.56C564.762 155.762 577.348 152.475 583.111 160.675C580.908 150.948 569.37 140.453 569.37 140.453C569.37 140.453 562.203 151 553.476 143.522Z" fill="#262A4E" stroke="#262A4E" stroke-width="5" stroke-linecap="round" stroke-linejoin="round"/>
<path d="M377.308 88.5144L412.76 116.394L441.606 67.2562C483.927 85.9542 512.198 88.077 512.198 88.077C512.198 88.077 491.002 84.7068 478.466 107.047C451.508 91.945 415.896 126.673 415.896 126.673C415.896 126.673 376.169 112.008 363.784 137.014C347.239 126.284 327.667 116.486 321.319 139.974C318.351 115.045 377.308 88.5144 377.308 88.5144Z" fill="#262A4E" stroke="#262A4E" stroke-width="5" stroke-linecap="round" stroke-linejoin="round"/>
<path d="M575.93 199.199L595.479 214.572L611.385 187.477C634.72 197.787 650.309 198.957 650.309 198.957C650.309 198.957 638.622 197.099 631.709 209.418C616.844 201.09 597.208 220.239 597.208 220.239C597.208 220.239 575.302 212.153 568.473 225.941C559.35 220.025 548.558 214.622 545.058 227.574C543.422 213.828 575.93 199.199 575.93 199.199Z" fill="#262A4E" stroke="#262A4E" stroke-width="5" stroke-linecap="round" stroke-linejoin="round"/>
<path d="M634.323 92.2577L640.56 104.418L654.506 94.753C663.753 105.298 671.211 109.518 671.211 109.518C671.211 109.518 665.839 105.869 659.657 110.338C654.161 102.752 640.147 107.621 640.147 107.621C640.147 107.621 631.11 98.5087 624.639 103.723C621.447 98.6691 617.312 93.4792 612.678 99.0577C614.947 91.8865 634.323 92.2577 634.323 92.2577Z" fill="#262A4E" stroke="#262A4E" stroke-width="5" stroke-linecap="round" stroke-linejoin="round"/>
<path d="M726.117 67.8741L730.005 71.1873L733.481 65.7624C738.186 68.0686 741.374 68.4369 741.374 68.4369C741.374 68.4369 738.992 67.9597 737.477 70.4287C734.494 68.5988 730.315 72.3637 730.315 72.3637C730.315 72.3637 725.886 70.5252 724.377 73.2963C722.552 72.0081 720.382 70.8114 719.562 73.4383C719.335 70.6062 726.117 67.8741 726.117 67.8741Z" fill="#262A4E" stroke="#262A4E" stroke-width="5" stroke-linecap="round" stroke-linejoin="round"/>
<path d="M693.643 76.8753L695.201 79.2434L697.894 76.8914C700.044 78.8495 701.686 79.5399 701.686 79.5399C701.686 79.5399 700.49 78.9163 699.3 79.9972C697.994 78.5597 695.184 79.9183 695.184 79.9183C695.184 79.9183 693.109 78.2522 691.875 79.4949C691.102 78.5257 690.131 77.5515 689.287 78.8242C689.605 77.2799 693.643 76.8753 693.643 76.8753Z" fill="#262A4E" stroke="#262A4E" stroke-width="5" stroke-linecap="round" stroke-linejoin="round"/>
<path d="M504.989 313.302L475.63 342.635L443.925 300.875C407.29 322.566 381.689 327.582 381.689 327.582C381.689 327.582 400.69 322.196 414.576 341.245C437.564 324.512 473.883 352.368 473.883 352.368C473.883 352.368 508.587 334.644 522.625 356.145C536.575 344.54 553.392 333.458 561.748 354.228C561.746 331.127 504.989 313.302 504.989 313.302Z" fill="#262A4E" stroke="#262A4E" stroke-width="5" stroke-linecap="round" stroke-linejoin="round"/>
</svg>
