<svg width="460" height="405" viewBox="0 0 460 405" fill="none" xmlns="http://www.w3.org/2000/svg">
<path d="M222.974 357.278C275.496 357.278 318.074 345.603 318.074 331.202C318.074 316.801 275.496 305.126 222.974 305.126C170.451 305.126 127.873 316.801 127.873 331.202C127.873 345.603 170.451 357.278 222.974 357.278Z" fill="#262A4E" stroke="#262A4E" stroke-width="5" stroke-linecap="round" stroke-linejoin="round"/>
<path d="M166.013 34.0487C143.677 42.2975 101.906 78.8745 103.742 143.803C105.433 203.334 122.446 240.951 122.446 240.951C126.363 241.863 140.196 242.862 148.733 242.393C140.925 220.901 116.233 152.435 123.447 117.222C132.146 65.1339 158.451 46.0646 158.451 46.0646L166.013 34.0487Z" fill="#D36C5A" stroke="#262A4E" stroke-width="5" stroke-linecap="round" stroke-linejoin="round"/>
<path d="M104.664 185.893C111.171 236.985 142.437 296.791 159.961 316.356C187.297 346.858 284.551 340.924 304.802 315.979C325.036 291.038 329.31 159.764 329.31 159.764L104.681 185.888L104.664 185.893Z" fill="#D36C5A"/>
<path d="M104.664 185.893C111.171 236.985 142.437 296.791 159.961 316.356C187.297 346.858 284.551 340.924 304.802 315.979C325.036 291.038 329.31 159.764 329.31 159.764L104.681 185.888L104.664 185.893Z" stroke="#262A4E" stroke-width="5" stroke-linecap="round" stroke-linejoin="round"/>
<path d="M104.664 185.893C111.171 236.985 142.437 296.791 159.961 316.356C187.297 346.858 284.551 340.924 304.802 315.979C325.036 291.038 329.31 159.764 329.31 159.764L104.681 185.888L104.664 185.893Z" fill="#D36C5A"/>
<path d="M123.912 192C123.912 192 145.607 180.697 168.311 197.305C179.012 238.977 229.379 302.721 258.199 333.157L203.181 334.426C157.582 287.265 123.895 192.005 123.895 192.005L123.912 192Z" fill="white" stroke="#262A4E" stroke-width="5" stroke-linecap="round" stroke-linejoin="round"/>
<path d="M297.99 307.855C240.919 274.75 184.063 173.796 184.063 173.796L184.047 173.8C184.047 173.8 203.502 158.926 228.713 171.387C243.041 203.091 285.409 244.549 318.881 272.482L308.722 310.533C305.305 309.857 301.727 308.976 297.99 307.855Z" fill="white" stroke="#262A4E" stroke-width="5" stroke-linecap="round" stroke-linejoin="round"/>
<path d="M104.664 185.893C111.171 236.985 142.437 296.791 159.961 316.356C187.297 346.858 284.551 340.924 304.802 315.979C325.036 291.038 329.31 159.764 329.31 159.764L104.681 185.888L104.664 185.893Z" stroke="#262A4E" stroke-width="5" stroke-linecap="round" stroke-linejoin="round"/>
<path d="M121.856 161.906C74.4127 193.407 131.684 224.997 212.44 217.565C293.196 210.134 348.281 177.281 323.455 147.23C298.629 117.179 169.316 130.401 121.856 161.906Z" fill="#262A4E" stroke="#262A4E" stroke-width="5" stroke-linecap="round" stroke-linejoin="round"/>
<path d="M165.091 34.4102C202.177 19.1675 248.202 23.5933 284.448 77.5015C317.69 126.92 325.71 167.428 325.71 167.428C323.063 170.455 312.369 179.31 305.145 183.884C299.011 161.855 293.558 106.558 253.01 66.0105C217.081 32.6419 140.494 51.2451 140.494 51.2451C147.604 43.0914 154.408 39.26 165.091 34.4102Z" fill="white" stroke="#262A4E" stroke-width="5" stroke-linecap="round" stroke-linejoin="round"/>
<path d="M309.851 186.402C306.865 204.333 312.553 221.633 321.768 216.508C330.983 211.383 333.479 183.44 326.622 174.083C320.184 165.291 312.222 172.166 309.851 186.402Z" fill="white" stroke="#262A4E" stroke-width="5" stroke-linecap="round" stroke-linejoin="round"/>
<mask id="mask0_108_17" style="mask-type:alpha" maskUnits="userSpaceOnUse" x="104" y="64" width="197" height="155">
<path d="M121.856 161.905C110.781 169.258 105.413 176.615 104.716 183.481C102.429 206.027 150.534 223.26 212.44 217.564C293.196 210.132 316.338 187.621 291.512 157.57C266.686 127.519 169.316 130.399 121.856 161.905Z" fill="#222A68"/>
<path d="M121.856 161.905C169.316 130.399 266.686 127.519 291.512 157.57C293.822 124.576 282.106 103.73 251.784 64.8422L104.716 69.6225L104.716 183.481C105.413 176.615 110.781 169.258 121.856 161.905Z" fill="#222A68"/>
</mask>
<g mask="url(#mask0_108_17)">
<path d="M242 181.074C242 181.074 240.832 190.763 243.002 197.542C246.768 197.093 250.301 193.959 250.485 191.803C255.637 195.618 263.521 187.458 257.62 183.631C261.803 181.976 259.214 171.339 259.214 171.339C259.214 171.339 249.095 174.649 242.007 181.07L242 181.074Z" fill="#66B6CC" stroke="#262A4E" stroke-width="5" stroke-linecap="round" stroke-linejoin="round"/>
<path d="M242 181.074C242 181.074 240.832 190.763 243.002 197.542C246.768 197.093 250.301 193.959 250.485 191.803C255.637 195.618 263.521 187.458 257.62 183.631C261.803 181.976 259.214 171.339 259.214 171.339C259.214 171.339 249.095 174.649 242.007 181.07L242 181.074Z" stroke="#262A4E" stroke-width="5" stroke-linecap="round" stroke-linejoin="round"/>
<path d="M250.486 191.803L242.001 181.074" stroke="#262A4E" stroke-width="5" stroke-linecap="round" stroke-linejoin="round"/>
<path d="M257.617 183.624L242.001 181.075" stroke="#262A4E" stroke-width="5" stroke-linecap="round" stroke-linejoin="round"/>
<path d="M224.54 170.446C224.54 170.446 227.431 161.124 226.518 154.065C222.732 153.821 218.698 156.28 218.128 158.361C213.745 153.676 204.523 160.29 209.638 165.118C205.229 165.994 205.859 176.918 205.859 176.918C205.859 176.918 216.41 175.482 224.536 170.439L224.54 170.446Z" fill="#66B6CC" stroke="#262A4E" stroke-width="5" stroke-linecap="round" stroke-linejoin="round"/>
<path d="M224.54 170.446C224.54 170.446 227.431 161.124 226.518 154.065C222.732 153.821 218.698 156.28 218.128 158.361C213.745 153.676 204.523 160.29 209.638 165.118C205.229 165.994 205.859 176.918 205.859 176.918C205.859 176.918 216.41 175.482 224.536 170.439L224.54 170.446Z" stroke="#262A4E" stroke-width="5" stroke-linecap="round" stroke-linejoin="round"/>
<path d="M218.127 158.359L224.538 170.444" stroke="#262A4E" stroke-width="5" stroke-linecap="round" stroke-linejoin="round"/>
<path d="M209.637 165.117L224.538 170.444" stroke="#262A4E" stroke-width="5" stroke-linecap="round" stroke-linejoin="round"/>
<path d="M220.413 182.881C224.119 189.301 232.328 191.5 238.747 187.794C245.167 184.088 247.366 175.879 243.66 169.46C239.954 163.04 231.745 160.84 225.326 164.547C218.906 168.253 216.707 176.462 220.413 182.881Z" fill="#66B6CC" stroke="#262A4E" stroke-width="5" stroke-linecap="round" stroke-linejoin="round"/>
<path d="M220.413 182.881C224.119 189.301 232.328 191.5 238.747 187.794C245.167 184.088 247.366 175.879 243.66 169.46C239.954 163.04 231.745 160.84 225.326 164.547C218.906 168.253 216.707 176.462 220.413 182.881Z" stroke="#262A4E" stroke-width="5" stroke-linecap="round" stroke-linejoin="round"/>
<path d="M193.871 205.951C193.871 205.951 199.897 213.628 206.225 216.886C208.57 213.906 208.852 209.192 207.458 207.537C213.798 206.592 213.603 195.247 206.724 196.714C208.512 192.586 199.16 186.895 199.16 186.895C199.16 186.895 194.346 196.39 193.873 205.943L193.871 205.951Z" fill="#9AA2F5" stroke="#262A4E" stroke-width="5" stroke-linecap="round" stroke-linejoin="round"/>
<path d="M193.871 205.951C193.871 205.951 199.897 213.628 206.225 216.886C208.57 213.906 208.852 209.192 207.458 207.537C213.798 206.592 213.603 195.247 206.724 196.714C208.512 192.586 199.16 186.895 199.16 186.895C199.16 186.895 194.346 196.39 193.873 205.943L193.871 205.951Z" stroke="#262A4E" stroke-width="5" stroke-linecap="round" stroke-linejoin="round"/>
<path d="M207.46 207.537L193.873 205.951" stroke="#262A4E" stroke-width="5" stroke-linecap="round" stroke-linejoin="round"/>
<path d="M206.718 196.712L193.873 205.951" stroke="#262A4E" stroke-width="5" stroke-linecap="round" stroke-linejoin="round"/>
<path d="M174.011 210.782C174.011 210.782 169.464 202.147 163.827 197.8C160.977 200.305 159.863 204.896 160.932 206.771C154.52 206.558 152.676 217.755 159.707 217.552C157.208 221.29 165.378 228.568 165.378 228.568C165.378 228.568 171.824 220.092 174.003 210.78L174.011 210.782Z" fill="#9AA2F5" stroke="#262A4E" stroke-width="5" stroke-linecap="round" stroke-linejoin="round"/>
<path d="M174.011 210.782C174.011 210.782 169.464 202.147 163.827 197.8C160.977 200.305 159.863 204.896 160.932 206.771C154.52 206.558 152.676 217.755 159.707 217.552C157.208 221.29 165.378 228.568 165.378 228.568C165.378 228.568 171.824 220.092 174.003 210.78L174.011 210.782Z" stroke="#262A4E" stroke-width="5" stroke-linecap="round" stroke-linejoin="round"/>
<path d="M160.931 206.771L174.009 210.783" stroke="#262A4E" stroke-width="5" stroke-linecap="round" stroke-linejoin="round"/>
<path d="M159.705 217.551L174.009 210.782" stroke="#262A4E" stroke-width="5" stroke-linecap="round" stroke-linejoin="round"/>
<path d="M179.886 222.493C187.046 224.412 194.406 220.163 196.324 213.003C198.243 205.843 193.994 198.483 186.834 196.565C179.674 194.646 172.314 198.895 170.395 206.055C168.477 213.215 172.726 220.575 179.886 222.493Z" fill="#9AA2F5" stroke="#262A4E" stroke-width="5" stroke-linecap="round" stroke-linejoin="round"/>
<path d="M179.886 222.493C187.046 224.412 194.406 220.163 196.324 213.003C198.243 205.843 193.994 198.483 186.834 196.565C179.674 194.646 172.314 198.895 170.395 206.055C168.477 213.215 172.726 220.575 179.886 222.493Z" stroke="#262A4E" stroke-width="5" stroke-linecap="round" stroke-linejoin="round"/>
<path d="M233.323 208.717C233.323 208.717 237.157 217.692 242.426 222.477C245.463 220.205 246.955 215.725 246.036 213.766C252.405 214.494 255.153 203.485 248.129 203.121C250.924 199.597 243.364 191.68 243.364 191.68C243.364 191.68 236.256 199.605 233.327 208.71L233.323 208.717Z" fill="white" stroke="#262A4E" stroke-width="5" stroke-linecap="round" stroke-linejoin="round"/>
<path d="M233.323 208.717C233.323 208.717 237.157 217.692 242.426 222.477C245.463 220.205 246.955 215.725 246.036 213.766C252.405 214.494 255.153 203.485 248.129 203.121C250.924 199.597 243.364 191.68 243.364 191.68C243.364 191.68 236.256 199.605 233.327 208.71L233.323 208.717Z" stroke="#262A4E" stroke-width="5" stroke-linecap="round" stroke-linejoin="round"/>
<path d="M246.035 213.767L233.322 208.718" stroke="#262A4E" stroke-width="5" stroke-linecap="round" stroke-linejoin="round"/>
<path d="M248.121 203.118L233.323 208.718" stroke="#262A4E" stroke-width="5" stroke-linecap="round" stroke-linejoin="round"/>
<path d="M212.886 208.243C212.886 208.243 210.729 198.725 206.409 193.068C203.008 194.749 200.744 198.896 201.291 200.983C195.153 199.118 190.473 209.456 197.317 211.08C193.936 214.044 199.944 223.188 199.944 223.188C199.944 223.188 208.364 216.669 212.879 208.239L212.886 208.243Z" fill="white" stroke="#262A4E" stroke-width="5" stroke-linecap="round" stroke-linejoin="round"/>
<path d="M212.886 208.243C212.886 208.243 210.729 198.725 206.409 193.068C203.008 194.749 200.744 198.896 201.291 200.983C195.153 199.118 190.473 209.456 197.317 211.08C193.936 214.044 199.944 223.188 199.944 223.188C199.944 223.188 208.364 216.669 212.879 208.239L212.886 208.243Z" stroke="#262A4E" stroke-width="5" stroke-linecap="round" stroke-linejoin="round"/>
<path d="M201.291 200.983L212.885 208.243" stroke="#262A4E" stroke-width="5" stroke-linecap="round" stroke-linejoin="round"/>
<path d="M197.317 211.08L212.886 208.243" stroke="#262A4E" stroke-width="5" stroke-linecap="round" stroke-linejoin="round"/>
<path d="M215.532 221.075C221.951 224.782 230.16 222.582 233.866 216.163C237.573 209.743 235.373 201.534 228.954 197.828C222.534 194.122 214.326 196.321 210.619 202.741C206.913 209.16 209.112 217.369 215.532 221.075Z" fill="white" stroke="#262A4E" stroke-width="5" stroke-linecap="round" stroke-linejoin="round"/>
<path d="M215.532 221.075C221.951 224.782 230.16 222.582 233.866 216.163C237.573 209.743 235.373 201.534 228.954 197.828C222.534 194.122 214.326 196.321 210.619 202.741C206.913 209.16 209.112 217.369 215.532 221.075Z" stroke="#262A4E" stroke-width="5" stroke-linecap="round" stroke-linejoin="round"/>
<path d="M192.291 175.87L183.188 179.977C180.539 181.178 177.412 180.492 175.503 178.297C172.587 174.952 173.723 169.76 177.758 167.937L186.862 163.83C189.511 162.629 192.637 163.316 194.547 165.511C197.463 168.856 196.327 174.048 192.291 175.87Z" fill="white" stroke="#262A4E" stroke-width="5" stroke-linecap="round" stroke-linejoin="round"/>
<path d="M184.564 167.036L175.461 171.143C172.812 172.344 169.685 171.658 167.776 169.463C164.86 166.118 165.996 160.926 170.032 159.103L179.135 154.996C181.784 153.795 184.911 154.482 186.82 156.677C189.736 160.022 188.6 165.214 184.564 167.036Z" fill="#66B6CC" stroke="#262A4E" stroke-width="5" stroke-linecap="round" stroke-linejoin="round"/>
<path d="M177.159 158.554L168.056 162.661C165.407 163.862 162.28 163.175 160.371 160.98C157.455 157.635 158.591 152.443 162.626 150.621L171.73 146.514C174.379 145.313 177.506 145.999 179.415 148.195C182.331 151.54 181.195 156.731 177.159 158.554Z" fill="white" stroke="#262A4E" stroke-width="5" stroke-linecap="round" stroke-linejoin="round"/>
<path d="M169.444 149.713L160.341 153.82C157.692 155.021 154.565 154.335 152.656 152.139C149.74 148.794 150.876 143.603 154.912 141.78L164.015 137.673C166.664 136.472 169.791 137.158 171.7 139.354C174.616 142.699 173.48 147.89 169.444 149.713Z" fill="#66B6CC" stroke="#262A4E" stroke-width="5" stroke-linecap="round" stroke-linejoin="round"/>
<path d="M148.334 191.38L150.75 177.857L199.566 186.579C203.29 187.245 205.78 190.817 205.114 194.542C204.449 198.266 200.876 200.756 197.152 200.09L148.336 191.368L148.334 191.38Z" fill="white" stroke="#262A4E" stroke-width="5" stroke-linecap="round" stroke-linejoin="round"/>
<path d="M165.008 197.761C173.324 183.356 168.389 164.936 153.984 156.619C139.579 148.303 121.16 153.238 112.843 167.643C104.526 182.048 109.462 200.468 123.867 208.784C138.272 217.101 156.691 212.166 165.008 197.761Z" fill="#FFE156" stroke="#262A4E" stroke-width="5" stroke-linecap="round" stroke-linejoin="round"/>
<path d="M143.213 161.337C154.749 166.41 159.994 179.886 154.922 191.422C150.867 200.654 140.086 204.851 130.859 200.785C123.467 197.536 120.116 188.911 123.369 181.536C125.967 175.627 132.861 172.945 138.77 175.543C143.499 177.622 145.648 183.136 143.569 187.866C141.905 191.641 137.49 193.366 133.715 191.702" stroke="#D36C5A" stroke-width="5" stroke-linecap="round" stroke-linejoin="round"/>
<path d="M278.086 184.06L286.509 190.899L261.818 221.307C259.934 223.628 256.513 223.982 254.193 222.098C251.872 220.214 251.518 216.793 253.402 214.473L278.093 184.065L278.086 184.06Z" fill="white" stroke="#262A4E" stroke-width="5" stroke-linecap="round" stroke-linejoin="round"/>
<path d="M267.303 193.145C274.081 204.401 288.7 208.032 299.955 201.254C311.211 194.477 314.842 179.858 308.064 168.602C301.287 157.346 286.668 153.716 275.412 160.493C264.156 167.271 260.526 181.889 267.303 193.145Z" fill="#727AD3" stroke="#262A4E" stroke-width="5" stroke-linecap="round" stroke-linejoin="round"/>
<path d="M300.812 192.006C292.895 198.04 281.575 196.514 275.54 188.598C270.709 182.265 271.93 173.208 278.268 168.385C283.34 164.518 290.583 165.498 294.436 170.567C297.528 174.622 296.746 180.413 292.691 183.504C289.446 185.978 284.813 185.355 282.339 182.11C280.366 179.516 280.861 175.805 283.455 173.832" stroke="#66B6CC" stroke-width="5" stroke-linecap="round" stroke-linejoin="round"/>
<path d="M244.361 136.579L255.562 144.532L226.851 184.964C224.66 188.049 220.368 188.777 217.283 186.586C214.197 184.396 213.47 180.103 215.66 177.018L244.371 136.586L244.361 136.579Z" fill="white" stroke="#262A4E" stroke-width="5" stroke-linecap="round" stroke-linejoin="round"/>
<path d="M261.925 161.355C278.258 158.209 288.948 142.419 285.803 126.085C282.657 109.752 266.866 99.0617 250.533 102.207C234.2 105.353 223.509 121.144 226.655 137.477C229.801 153.81 245.591 164.501 261.925 161.355Z" fill="#D36C5A" stroke="#262A4E" stroke-width="5" stroke-linecap="round" stroke-linejoin="round"/>
<path d="M273.725 144.771C264.213 153.042 249.791 152.038 241.52 142.525C234.898 134.921 235.704 123.386 243.32 116.761C249.409 111.472 258.639 112.112 263.928 118.201C268.169 123.069 267.653 130.456 262.783 134.685C258.887 138.068 252.981 137.661 249.598 133.766C246.892 130.649 247.214 125.92 250.33 123.213" stroke="#FFE156" stroke-width="5" stroke-linecap="round" stroke-linejoin="round"/>
<path d="M211.975 139.712C211.975 139.712 219.783 145.567 226.739 147.077C228.233 143.591 227.285 138.965 225.51 137.728C231.389 135.174 228.265 124.266 222 127.463C222.658 123.013 212.152 119.937 212.152 119.937C212.152 119.937 209.959 130.354 211.975 139.704V139.712Z" fill="white" stroke="#262A4E" stroke-width="5" stroke-linecap="round" stroke-linejoin="round"/>
<path d="M211.975 139.712C211.975 139.712 219.783 145.567 226.739 147.077C228.233 143.591 227.285 138.965 225.51 137.728C231.389 135.174 228.265 124.266 222 127.463C222.658 123.013 212.152 119.937 212.152 119.937C212.152 119.937 209.959 130.354 211.975 139.704V139.712Z" stroke="#262A4E" stroke-width="5" stroke-linecap="round" stroke-linejoin="round"/>
<path d="M225.509 137.728L211.975 139.711" stroke="#262A4E" stroke-width="5" stroke-linecap="round" stroke-linejoin="round"/>
<path d="M221.991 127.463L211.975 139.712" stroke="#262A4E" stroke-width="5" stroke-linecap="round" stroke-linejoin="round"/>
<path d="M194.039 149.52C194.039 149.52 187.413 142.355 180.843 139.616C178.738 142.773 178.851 147.496 180.369 149.03C174.12 150.484 175.236 161.777 181.975 159.761C180.529 164.018 190.304 168.934 190.304 168.934C190.304 168.934 194.337 159.078 194.031 149.52H194.039Z" fill="white" stroke="#262A4E" stroke-width="5" stroke-linecap="round" stroke-linejoin="round"/>
<path d="M194.039 149.52C194.039 149.52 187.413 142.355 180.843 139.616C178.738 142.773 178.851 147.496 180.369 149.03C174.12 150.484 175.236 161.777 181.975 159.761C180.529 164.018 190.304 168.934 190.304 168.934C190.304 168.934 194.337 159.078 194.031 149.52H194.039Z" stroke="#262A4E" stroke-width="5" stroke-linecap="round" stroke-linejoin="round"/>
<path d="M180.367 149.029L194.038 149.519" stroke="#262A4E" stroke-width="5" stroke-linecap="round" stroke-linejoin="round"/>
<path d="M181.975 159.761L194.039 149.52" stroke="#262A4E" stroke-width="5" stroke-linecap="round" stroke-linejoin="round"/>
<path d="M202.746 159.31C210.159 159.31 216.168 153.301 216.168 145.889C216.168 138.476 210.159 132.467 202.746 132.467C195.333 132.467 189.324 138.476 189.324 145.889C189.324 153.301 195.333 159.31 202.746 159.31Z" fill="white" stroke="#262A4E" stroke-width="5" stroke-linecap="round" stroke-linejoin="round"/>
<path d="M202.746 159.31C210.159 159.31 216.168 153.301 216.168 145.889C216.168 138.476 210.159 132.467 202.746 132.467C195.333 132.467 189.324 138.476 189.324 145.889C189.324 153.301 195.333 159.31 202.746 159.31Z" stroke="#262A4E" stroke-width="5" stroke-linecap="round" stroke-linejoin="round"/>
<path d="M227.737 234.655L223.734 225.506C222.564 222.843 223.286 219.724 225.503 217.84C228.88 214.963 234.059 216.157 235.836 220.214L239.839 229.363C241.009 232.026 240.287 235.144 238.07 237.028C234.693 239.906 229.514 238.711 227.737 234.655Z" fill="white" stroke="#262A4E" stroke-width="5" stroke-linecap="round" stroke-linejoin="round"/>
<path d="M236.657 227.028L232.654 217.879C231.483 215.216 232.206 212.098 234.422 210.214C237.8 207.336 242.979 208.531 244.756 212.587L248.759 221.736C249.929 224.399 249.207 227.518 246.99 229.402C243.613 232.279 238.434 231.085 236.657 227.028Z" fill="#FFE156" stroke="#262A4E" stroke-width="5" stroke-linecap="round" stroke-linejoin="round"/>
<path d="M245.226 219.722L241.223 210.572C240.052 207.91 240.774 204.791 242.991 202.907C246.369 200.029 251.547 201.224 253.324 205.28L257.327 214.43C258.498 217.092 257.776 220.211 255.559 222.095C252.181 224.973 247.002 223.778 245.226 219.722Z" fill="white" stroke="#262A4E" stroke-width="5" stroke-linecap="round" stroke-linejoin="round"/>
<path d="M254.153 212.107L250.15 202.958C248.98 200.296 249.702 197.177 251.919 195.293C255.296 192.415 260.475 193.61 262.252 197.666L266.255 206.815C267.425 209.478 266.703 212.597 264.487 214.481C261.109 217.358 255.93 216.164 254.153 212.107Z" fill="#FFE156" stroke="#262A4E" stroke-width="5" stroke-linecap="round" stroke-linejoin="round"/>
</g>
<path d="M48.6684 184.521C41.1238 189.136 39.3943 191.882 38.4978 200.671C33.8831 193.126 31.1367 191.397 22.348 190.5C29.8926 185.885 31.6222 183.139 32.5186 174.35C37.1333 181.895 39.8797 183.624 48.6684 184.521Z" fill="#262A4E" stroke="#262A4E" stroke-width="5" stroke-linecap="round" stroke-linejoin="round"/>
<path d="M44.9637 105.367C40.8495 108.561 39.9882 110.587 39.8784 117.297C36.8803 111.293 35.2285 109.838 30.138 108.735C34.2523 105.541 35.1136 103.515 35.2234 96.8053C38.2215 102.809 39.8732 104.264 44.9637 105.367Z" fill="#262A4E"/>
<path d="M44.9637 105.367C40.8495 108.561 39.9882 110.587 39.8784 117.297C36.8803 111.293 35.2285 109.838 30.138 108.735C34.2523 105.541 35.1136 103.515 35.2234 96.8053C38.2215 102.809 39.8732 104.264 44.9637 105.367Z" stroke="#262A4E" stroke-width="5" stroke-linecap="round" stroke-linejoin="round"/>
<path d="M15.4438 152.536C11.7821 154.901 10.9577 156.331 10.5933 160.957C8.26619 156.943 6.90467 156.009 2.58094 155.458C6.24257 153.094 7.06698 151.664 7.43141 147.038C9.7585 151.052 11.12 151.986 15.4438 152.536Z" fill="white"/>
<path d="M15.4438 152.536C11.7821 154.901 10.9577 156.331 10.5933 160.957C8.26619 156.943 6.90467 156.009 2.58094 155.458C6.24257 153.094 7.06698 151.664 7.43141 147.038C9.7585 151.052 11.12 151.986 15.4438 152.536V152.536Z" stroke="white" stroke-width="5" stroke-linecap="round" stroke-linejoin="round"/>
<path d="M367.579 62.9961C361.157 67.3557 359.74 70.0312 359.215 78.7354C354.98 71.1047 352.546 69.3042 344.872 68.1544C351.294 63.7947 352.712 61.1193 353.236 52.415C357.472 60.0457 359.906 61.8463 367.579 62.9961Z" fill="#262A4E"/>
<path d="M367.579 62.9961C361.157 67.3557 359.74 70.0312 359.215 78.7354C354.98 71.1047 352.546 69.3042 344.872 68.1544C351.294 63.7947 352.712 61.1193 353.236 52.415C357.472 60.0457 359.906 61.8463 367.579 62.9961Z" stroke="#262A4E" stroke-width="5" stroke-linecap="round" stroke-linejoin="round"/>
<path d="M390.115 110.066C387.345 111.946 386.731 113.102 386.506 116.859C384.679 113.568 383.627 112.791 380.316 112.292C383.087 110.411 383.7 109.256 383.925 105.498C385.752 108.789 386.804 109.567 390.115 110.066Z" fill="#262A4E"/>
<path d="M390.115 110.066C387.345 111.946 386.731 113.102 386.506 116.859C384.679 113.568 383.627 112.791 380.316 112.292C383.087 110.411 383.7 109.256 383.925 105.498C385.752 108.789 386.804 109.567 390.115 110.066Z" stroke="#262A4E" stroke-width="5" stroke-linecap="round" stroke-linejoin="round"/>
<path d="M285.095 29.988C281.747 30.0801 280.608 30.7236 278.395 33.768C278.628 30.0111 278.16 28.7893 275.639 26.5856C278.986 26.4936 280.126 25.8501 282.339 22.8057C282.106 26.5625 282.574 27.7843 285.095 29.988Z" fill="#262A4E"/>
<path d="M285.095 29.988C281.747 30.0801 280.608 30.7236 278.395 33.768C278.628 30.0111 278.16 28.7893 275.639 26.5856C278.986 26.4936 280.126 25.8501 282.339 22.8057C282.106 26.5625 282.574 27.7843 285.095 29.988Z" stroke="#262A4E" stroke-width="5" stroke-linecap="round" stroke-linejoin="round"/>
<path d="M393.807 139.079L403.949 154.227L414.902 138.079C414.902 138.079 423.976 148.904 436.65 137.994C452.073 150.644 456.766 162.628 456.766 162.628C456.766 162.628 438.74 151.117 427.831 157.754C418.733 148.507 403.069 158.477 403.069 158.477C403.069 158.477 394.913 149.25 383.469 156.901C378.217 150.682 363.708 146.495 355.416 154.392C359.705 144.707 375.301 134.886 375.301 134.886C375.301 134.886 382.089 146.042 393.807 139.079Z" fill="#262A4E" stroke="#262A4E" stroke-width="5" stroke-linecap="round" stroke-linejoin="round"/>
<path d="M78.5289 100.784C79.4076 100.584 79.9582 99.7099 79.7585 98.8311C79.5589 97.9524 78.6847 97.4018 77.806 97.6014C76.9272 97.8011 76.3767 98.6753 76.5763 99.554C76.7759 100.433 77.6501 100.983 78.5289 100.784Z" fill="white" stroke="white" stroke-width="5" stroke-linecap="round" stroke-linejoin="round"/>
<path d="M394.123 86.7046C395.001 86.505 395.552 85.6308 395.352 84.752C395.153 83.8733 394.278 83.3227 393.4 83.5223C392.521 83.722 391.97 84.5962 392.17 85.4749C392.37 86.3537 393.244 86.9042 394.123 86.7046Z" fill="white" stroke="white" stroke-width="5" stroke-linecap="round" stroke-linejoin="round"/>
<path d="M321.904 57.5083C322.783 57.3087 323.333 56.4345 323.134 55.5557C322.934 54.677 322.06 54.1264 321.181 54.326C320.302 54.5257 319.752 55.3999 319.951 56.2786C320.151 57.1574 321.025 57.7079 321.904 57.5083Z" fill="white" stroke="white" stroke-width="5" stroke-linecap="round" stroke-linejoin="round"/>
</svg>
