<svg width="365" height="324" viewBox="0 0 365 324" fill="none" xmlns="http://www.w3.org/2000/svg">
<path d="M161.103 222.454C122.481 210.651 73.4921 184.032 29.0741 214.568C-15.3439 245.105 -13.5359 344.859 109.452 315.559C266.288 278.194 161.113 222.464 161.113 222.464L161.103 222.454Z" fill="#222A68"/>
<path d="M161.113 222.464C161.113 222.464 266.288 278.194 109.452 315.559C165.678 302.084 203.703 280.842 281.246 222.454H161.103L161.113 222.464Z" fill="#222A68"/>
<path d="M161.103 222.454C122.481 210.651 73.4921 184.032 29.0741 214.568C-15.3439 245.105 -13.5359 344.859 109.452 315.559M161.103 222.454L161.113 222.464C161.113 222.464 266.288 278.194 109.452 315.559M161.103 222.454H281.246C203.703 280.842 165.678 302.084 109.452 315.559" stroke="#222A68" stroke-width="5" stroke-linecap="round" stroke-linejoin="round"/>
<path d="M249.276 72.8672C242.988 30.2974 213.888 26.1389 200.478 34.7674C187.068 43.3958 178.098 74.5045 196.31 113.92C218.036 160.94 242.335 158.961 242.335 158.961C242.335 158.961 274.659 98.2102 328.398 110.706C382.148 123.202 371.239 194.037 299.711 216.618C251.044 231.977 161.856 239.56 83.6172 200.767L97.1375 198.598C97.1375 198.598 75.3704 110.877 108.93 55.5098C125.112 28.8108 156.844 4.87408 195.777 2.98566C234.701 1.09724 263.509 25.7672 249.286 72.8672H249.276Z" fill="#FC7361"/>
<path d="M86.4591 163.481C125.383 170.653 217.162 153.527 226.423 134.964C242.043 135.416 251.927 137.415 244.715 154.943C237.502 172.471 182.276 225.287 93.3096 196.378C52.9798 174.179 86.4591 163.471 86.4591 163.471V163.481Z" fill="#222A68" stroke="#222A68" stroke-width="5" stroke-linecap="round" stroke-linejoin="round"/>
<path d="M249.276 72.8672C242.988 30.2974 213.888 26.1389 200.478 34.7674C187.068 43.3958 178.098 74.5045 196.31 113.92C218.036 160.94 242.335 158.961 242.335 158.961C242.335 158.961 274.659 98.2102 328.399 110.706C382.148 123.202 371.239 194.037 299.711 216.618C251.044 231.977 161.856 239.56 83.6172 200.767L97.1375 198.598C97.1375 198.598 75.3704 110.877 108.93 55.5098C125.112 28.8108 156.844 4.87408 195.777 2.98566C234.701 1.09724 263.509 25.7672 249.286 72.8672H249.276Z" stroke="#222A68" stroke-width="5" stroke-linecap="round" stroke-linejoin="round"/>
<path d="M175.266 153.145C169.611 157.686 189.188 197.463 194.642 197.805C200.097 198.146 226.384 182.627 227.208 178.107C228.031 173.587 207.399 146.757 203.944 145.411C200.488 144.065 178.47 150.574 175.266 153.135V153.145Z" fill="#FFE156" stroke="#222A68" stroke-width="5" stroke-linecap="round" stroke-linejoin="round"/>
<path d="M190.081 161.884C187.51 163.953 198.037 181.853 200.518 182.014C202.999 182.174 213.003 177.313 213.375 175.253C213.747 173.194 203.34 158.509 201.763 157.896C200.186 157.283 191.538 160.709 190.081 161.884Z" fill="#222A68" stroke="#222A68" stroke-width="5" stroke-linecap="round" stroke-linejoin="round"/>
<path d="M197.354 167.619C195.024 167.238 188.646 168.554 188.294 170.653C187.942 172.752 190.052 178.84 193.276 178.538C196.501 178.237 201.533 176.027 201.774 174.802C202.015 173.576 199.112 167.911 197.354 167.619Z" fill="#FFE156" stroke="#222A68" stroke-width="5" stroke-linecap="round" stroke-linejoin="round"/>
</svg>
