<svg width="75" height="73" viewBox="0 0 75 73" fill="none" xmlns="http://www.w3.org/2000/svg">
<path d="M35.4648 30.5659L43.5442 39.0146L13.0452 68.1805C10.718 70.4059 7.01368 70.3232 4.78822 67.996C2.56277 65.6688 2.64556 61.9645 4.97274 59.739L35.4718 30.5731L35.4648 30.5659Z" fill="white" stroke="#262A4E" stroke-width="5" stroke-linecap="round" stroke-linejoin="round"/>
<path d="M46.1515 54.0964C60.3065 54.0964 71.7815 42.6215 71.7815 28.4664C71.7815 14.3114 60.3065 2.83643 46.1515 2.83643C31.9964 2.83643 20.5215 14.3114 20.5215 28.4664C20.5215 42.6215 31.9964 54.0964 46.1515 54.0964Z" fill="#D36C5A" stroke="#262A4E" stroke-width="5" stroke-linecap="round" stroke-linejoin="round"/>
<path d="M58.6813 42.1368C49.4013 47.5168 37.5113 44.3568 32.1313 35.0768C27.8213 27.6568 30.3513 18.1468 37.7813 13.8368C43.7213 10.3968 51.3313 12.4168 54.7713 18.3568C57.5313 23.1068 55.9113 29.1968 51.1613 31.9468C47.3613 34.1468 42.4913 32.8568 40.2913 29.0568C38.5313 26.0168 39.5613 22.1168 42.6013 20.3568" stroke="#FFE156" stroke-width="5" stroke-linecap="round" stroke-linejoin="round"/>
</svg>
