<svg width="43" height="29" viewBox="0 0 43 29" fill="none" xmlns="http://www.w3.org/2000/svg">
<path d="M2.87957 20.1863L3.64957 12.4963C3.86957 10.2563 5.53956 8.42633 7.74956 7.99633C11.1196 7.33633 14.1596 10.1063 13.8196 13.5163L13.0496 21.2063C12.8296 23.4463 11.1596 25.2763 8.94958 25.7063C5.57958 26.3663 2.53957 23.5963 2.87957 20.1863Z" fill="white" stroke="#262A4E" stroke-width="5" stroke-linecap="round" stroke-linejoin="round"/>
<path d="M11.7897 18.4266L12.5597 10.7366C12.7797 8.49656 14.4497 6.66656 16.6597 6.23656C20.0297 5.57656 23.0697 8.34658 22.7297 11.7566L21.9597 19.4466C21.7397 21.6866 20.0697 23.5166 17.8597 23.9466C14.4897 24.6066 11.4497 21.8366 11.7897 18.4266Z" fill="#FFE156" stroke="#262A4E" stroke-width="5" stroke-linecap="round" stroke-linejoin="round"/>
<path d="M20.3405 16.7464L21.1105 9.05639C21.3305 6.81639 23.0005 4.98639 25.2105 4.55639C28.5805 3.89639 31.6205 6.66638 31.2805 10.0764L30.5105 17.7664C30.2905 20.0064 28.6205 21.8364 26.4105 22.2664C23.0405 22.9264 20.0005 20.1564 20.3405 16.7464Z" fill="white" stroke="#262A4E" stroke-width="5" stroke-linecap="round" stroke-linejoin="round"/>
<path d="M29.2487 14.9964L30.0187 7.30639C30.2387 5.06639 31.9087 3.23639 34.1187 2.80639C37.4887 2.14639 40.5287 4.91638 40.1887 8.32638L39.4187 16.0164C39.1987 18.2564 37.5287 20.0864 35.3187 20.5164C31.9487 21.1764 28.9087 18.4064 29.2487 14.9964Z" fill="#FFE156" stroke="#262A4E" stroke-width="5" stroke-linecap="round" stroke-linejoin="round"/>
</svg>
