<svg width="70" height="60" viewBox="0 0 70 60" fill="none" xmlns="http://www.w3.org/2000/svg">
<path d="M26.4079 23.7388C26.4079 23.7388 30.4179 12.2688 29.5879 3.44883C24.8879 2.98883 19.7579 5.85881 18.9579 8.42881C13.7179 2.40881 1.94788 10.2288 8.09788 16.4688C2.57788 17.3588 2.87788 30.9888 2.87788 30.9888C2.87788 30.9888 16.0679 29.6588 26.3979 23.7388H26.4079Z" fill="#66B6CC" stroke="#262A4E" stroke-width="5" stroke-linecap="round" stroke-linejoin="round"/>
<path d="M26.4079 23.7388C26.4079 23.7388 30.4179 12.2688 29.5879 3.44883C24.8879 2.98883 19.7579 5.85881 18.9579 8.42881C13.7179 2.40881 1.94788 10.2288 8.09788 16.4688C2.57788 17.3588 2.87788 30.9888 2.87788 30.9888C2.87788 30.9888 16.0679 29.6588 26.3979 23.7388H26.4079Z" stroke="#262A4E" stroke-width="5" stroke-linecap="round" stroke-linejoin="round"/>
<path d="M18.957 8.42871L26.407 23.7387" stroke="#262A4E" stroke-width="5" stroke-linecap="round" stroke-linejoin="round"/>
<path d="M8.09766 16.459L26.4077 23.739" stroke="#262A4E" stroke-width="5" stroke-linecap="round" stroke-linejoin="round"/>
<path d="M35.6377 46.7789C44.8664 46.7789 52.3477 39.2976 52.3477 30.0689C52.3477 20.8402 44.8664 13.3589 35.6377 13.3589C26.4091 13.3589 18.9277 20.8402 18.9277 30.0689C18.9277 39.2976 26.4091 46.7789 35.6377 46.7789Z" fill="#66B6CC" stroke="#262A4E" stroke-width="5" stroke-linecap="round" stroke-linejoin="round"/>
<path d="M35.6377 46.7789C44.8664 46.7789 52.3477 39.2976 52.3477 30.0689C52.3477 20.8402 44.8664 13.3589 35.6377 13.3589C26.4091 13.3589 18.9277 20.8402 18.9277 30.0689C18.9277 39.2976 26.4091 46.7789 35.6377 46.7789Z" stroke="#262A4E" stroke-width="5" stroke-linecap="round" stroke-linejoin="round"/>
<path d="M44.1672 36.3888C44.1672 36.3888 42.2872 48.3888 44.6872 56.9188C49.3972 56.5288 53.9272 52.7788 54.2472 50.1088C60.4872 55.0888 70.6572 45.2788 63.4772 40.2488C68.7472 38.3788 65.9972 25.0288 65.9972 25.0288C65.9972 25.0288 53.2672 28.7088 44.1572 36.3888H44.1672Z" fill="#66B6CC" stroke="#262A4E" stroke-width="5" stroke-linecap="round" stroke-linejoin="round"/>
<path d="M44.1672 36.3888C44.1672 36.3888 42.2872 48.3888 44.6872 56.9188C49.3972 56.5288 53.9272 52.7788 54.2472 50.1088C60.4872 55.0888 70.6572 45.2788 63.4772 40.2488C68.7472 38.3788 65.9972 25.0288 65.9972 25.0288C65.9972 25.0288 53.2672 28.7088 44.1572 36.3888H44.1672Z" stroke="#262A4E" stroke-width="5" stroke-linecap="round" stroke-linejoin="round"/>
<path d="M54.248 50.1087L44.168 36.3887" stroke="#262A4E" stroke-width="5" stroke-linecap="round" stroke-linejoin="round"/>
<path d="M63.478 40.2487L44.168 36.3887" stroke="#262A4E" stroke-width="5" stroke-linecap="round" stroke-linejoin="round"/>
</svg>
