<svg width="71" height="67" viewBox="0 0 71 67" fill="none" xmlns="http://www.w3.org/2000/svg">
<path d="M47.4694 27.1415C47.4694 27.1415 57.1894 34.4315 65.8494 36.3115C67.7094 31.9715 66.5294 26.2115 64.3195 24.6715C71.6395 21.4915 67.7494 7.91148 59.9494 11.8915C60.7694 6.35148 47.6894 2.52148 47.6894 2.52148C47.6894 2.52148 44.9594 15.4915 47.4694 27.1315V27.1415Z" fill="white" stroke="#262A4E" stroke-width="5" stroke-linecap="round" stroke-linejoin="round"/>
<path d="M47.4694 27.1415C47.4694 27.1415 57.1894 34.4315 65.8494 36.3115C67.7094 31.9715 66.5295 26.2115 64.3195 24.6715C71.6395 21.4915 67.7494 7.91148 59.9494 11.8915C60.7694 6.35148 47.6894 2.52148 47.6894 2.52148C47.6894 2.52148 44.9594 15.4915 47.4694 27.1315V27.1415Z" stroke="#262A4E" stroke-width="5" stroke-linecap="round" stroke-linejoin="round"/>
<path d="M64.3207 24.6714L47.4707 27.1414" stroke="#262A4E" stroke-width="5" stroke-linecap="round" stroke-linejoin="round"/>
<path d="M59.9407 11.8916L47.4707 27.1416" stroke="#262A4E" stroke-width="5" stroke-linecap="round" stroke-linejoin="round"/>
<path d="M25.1403 39.3515C25.1403 39.3515 16.8903 30.4315 8.7103 27.0215C6.0903 30.9515 6.2303 36.8315 8.1203 38.7415C0.340304 40.5515 1.7303 54.6115 10.1203 52.1015C8.3203 57.4015 20.4903 63.5215 20.4903 63.5215C20.4903 63.5215 25.5103 51.2515 25.1303 39.3515H25.1403Z" fill="white" stroke="#262A4E" stroke-width="5" stroke-linecap="round" stroke-linejoin="round"/>
<path d="M25.1403 39.3515C25.1403 39.3515 16.8903 30.4315 8.7103 27.0215C6.0903 30.9515 6.2303 36.8315 8.1203 38.7415C0.340304 40.5515 1.7303 54.6115 10.1203 52.1015C8.3203 57.4015 20.4903 63.5215 20.4903 63.5215C20.4903 63.5215 25.5103 51.2515 25.1303 39.3515H25.1403Z" stroke="#262A4E" stroke-width="5" stroke-linecap="round" stroke-linejoin="round"/>
<path d="M8.12109 38.7417L25.1411 39.3517" stroke="#262A4E" stroke-width="5" stroke-linecap="round" stroke-linejoin="round"/>
<path d="M10.1211 52.1016L25.1411 39.3516" stroke="#262A4E" stroke-width="5" stroke-linecap="round" stroke-linejoin="round"/>
<path d="M35.9795 51.5416C45.2082 51.5416 52.6895 44.0603 52.6895 34.8316C52.6895 25.6029 45.2082 18.1216 35.9795 18.1216C26.7509 18.1216 19.2695 25.6029 19.2695 34.8316C19.2695 44.0603 26.7509 51.5416 35.9795 51.5416Z" fill="white" stroke="#262A4E" stroke-width="5" stroke-linecap="round" stroke-linejoin="round"/>
<path d="M35.9795 51.5416C45.2082 51.5416 52.6895 44.0603 52.6895 34.8316C52.6895 25.6029 45.2082 18.1216 35.9795 18.1216C26.7509 18.1216 19.2695 25.6029 19.2695 34.8316C19.2695 44.0603 26.7509 51.5416 35.9795 51.5416Z" stroke="#262A4E" stroke-width="5" stroke-linecap="round" stroke-linejoin="round"/>
</svg>
