<svg width="1122" height="305" viewBox="0 0 1122 305" fill="none" xmlns="http://www.w3.org/2000/svg">
<path d="M122.465 83.5659L130.544 92.0146L100.045 121.18C97.718 123.406 94.0137 123.323 91.7882 120.996C89.5628 118.669 89.6456 114.964 91.9727 112.739L122.472 83.5731L122.465 83.5659Z" fill="white" stroke="#262A4E" stroke-width="5" stroke-linecap="round" stroke-linejoin="round"/>
<path d="M133.151 107.096C147.307 107.096 158.781 95.6215 158.781 81.4664C158.781 67.3114 147.307 55.8364 133.151 55.8364C118.996 55.8364 107.521 67.3114 107.521 81.4664C107.521 95.6215 118.996 107.096 133.151 107.096Z" fill="#D36C5A" stroke="#262A4E" stroke-width="5" stroke-linecap="round" stroke-linejoin="round"/>
<path d="M145.681 95.1368C136.401 100.517 124.511 97.3568 119.131 88.0768C114.821 80.6568 117.351 71.1468 124.781 66.8368C130.721 63.3968 138.331 65.4168 141.771 71.3568C144.531 76.1068 142.911 82.1968 138.161 84.9468C134.361 87.1468 129.491 85.8568 127.291 82.0568C125.531 79.0168 126.561 75.1168 129.601 73.3568" stroke="#FFE156" stroke-width="5" stroke-linecap="round" stroke-linejoin="round"/>
<path d="M979.88 296.186L980.65 288.496C980.87 286.256 982.54 284.426 984.75 283.996C988.12 283.336 991.16 286.106 990.82 289.516L990.05 297.206C989.83 299.446 988.16 301.276 985.95 301.706C982.58 302.366 979.54 299.596 979.88 296.186Z" fill="white" stroke="#262A4E" stroke-width="5" stroke-linecap="round" stroke-linejoin="round"/>
<path d="M988.79 294.427L989.56 286.737C989.78 284.497 991.45 282.667 993.66 282.237C997.03 281.577 1000.07 284.347 999.73 287.757L998.96 295.447C998.74 297.687 997.07 299.517 994.86 299.947C991.49 300.607 988.45 297.837 988.79 294.427Z" fill="#FFE156" stroke="#262A4E" stroke-width="5" stroke-linecap="round" stroke-linejoin="round"/>
<path d="M997.341 292.746L998.11 285.056C998.33 282.816 1000 280.986 1002.21 280.556C1005.58 279.896 1008.62 282.666 1008.28 286.076L1007.51 293.766C1007.29 296.006 1005.62 297.836 1003.41 298.266C1000.04 298.926 997.001 296.156 997.341 292.746Z" fill="white" stroke="#262A4E" stroke-width="5" stroke-linecap="round" stroke-linejoin="round"/>
<path d="M1006.25 290.996L1007.02 283.306C1007.24 281.066 1008.91 279.236 1011.12 278.806C1014.49 278.146 1017.53 280.916 1017.19 284.326L1016.42 292.016C1016.2 294.256 1014.53 296.086 1012.32 296.516C1008.95 297.176 1005.91 294.406 1006.25 290.996Z" fill="#FFE156" stroke="#262A4E" stroke-width="5" stroke-linecap="round" stroke-linejoin="round"/>
<path d="M1078.41 58.7388C1078.41 58.7388 1082.42 47.2688 1081.59 38.4488C1076.89 37.9888 1071.76 40.8588 1070.96 43.4288C1065.72 37.4088 1053.95 45.2288 1060.1 51.4688C1054.58 52.3588 1054.88 65.9888 1054.88 65.9888C1054.88 65.9888 1068.07 64.6588 1078.4 58.7388H1078.41Z" fill="#66B6CC" stroke="#262A4E" stroke-width="5" stroke-linecap="round" stroke-linejoin="round"/>
<path d="M1078.41 58.7388C1078.41 58.7388 1082.42 47.2688 1081.59 38.4488C1076.89 37.9888 1071.76 40.8588 1070.96 43.4288C1065.72 37.4088 1053.95 45.2288 1060.1 51.4688C1054.58 52.3588 1054.88 65.9888 1054.88 65.9888C1054.88 65.9888 1068.07 64.6588 1078.4 58.7388H1078.41Z" stroke="#262A4E" stroke-width="5" stroke-linecap="round" stroke-linejoin="round"/>
<path d="M1070.96 43.4287L1078.41 58.7387" stroke="#262A4E" stroke-width="5" stroke-linecap="round" stroke-linejoin="round"/>
<path d="M1060.1 51.459L1078.41 58.739" stroke="#262A4E" stroke-width="5" stroke-linecap="round" stroke-linejoin="round"/>
<path d="M1087.64 81.7789C1096.87 81.7789 1104.35 74.2976 1104.35 65.0689C1104.35 55.8402 1096.87 48.3589 1087.64 48.3589C1078.41 48.3589 1070.93 55.8402 1070.93 65.0689C1070.93 74.2976 1078.41 81.7789 1087.64 81.7789Z" fill="#66B6CC" stroke="#262A4E" stroke-width="5" stroke-linecap="round" stroke-linejoin="round"/>
<path d="M1087.64 81.7789C1096.87 81.7789 1104.35 74.2976 1104.35 65.0689C1104.35 55.8402 1096.87 48.3589 1087.64 48.3589C1078.41 48.3589 1070.93 55.8402 1070.93 65.0689C1070.93 74.2976 1078.41 81.7789 1087.64 81.7789Z" stroke="#262A4E" stroke-width="5" stroke-linecap="round" stroke-linejoin="round"/>
<path d="M1096.17 71.3888C1096.17 71.3888 1094.29 83.3888 1096.69 91.9188C1101.4 91.5288 1105.93 87.7788 1106.25 85.1088C1112.49 90.0888 1122.66 80.2788 1115.48 75.2488C1120.75 73.3788 1118 60.0288 1118 60.0288C1118 60.0288 1105.27 63.7088 1096.16 71.3888H1096.17Z" fill="#66B6CC" stroke="#262A4E" stroke-width="5" stroke-linecap="round" stroke-linejoin="round"/>
<path d="M1096.17 71.3888C1096.17 71.3888 1094.29 83.3888 1096.69 91.9188C1101.4 91.5288 1105.93 87.7788 1106.25 85.1088C1112.49 90.0888 1122.66 80.2788 1115.48 75.2488C1120.75 73.3788 1118 60.0288 1118 60.0288C1118 60.0288 1105.27 63.7088 1096.16 71.3888H1096.17Z" stroke="#262A4E" stroke-width="5" stroke-linecap="round" stroke-linejoin="round"/>
<path d="M1106.25 85.1087L1096.17 71.3887" stroke="#262A4E" stroke-width="5" stroke-linecap="round" stroke-linejoin="round"/>
<path d="M1115.48 75.2487L1096.17 71.3887" stroke="#262A4E" stroke-width="5" stroke-linecap="round" stroke-linejoin="round"/>
<path d="M179.232 283.899C168.242 287.609 165.232 290.619 161.532 301.599C157.822 290.609 154.812 287.599 143.832 283.899C154.822 280.189 157.832 277.179 161.532 266.199C165.242 277.189 168.252 280.199 179.232 283.899Z" fill="#262A4E"/>
<path d="M179.232 283.899C168.242 287.609 165.232 290.619 161.532 301.599C157.822 290.609 154.812 287.599 143.832 283.899C154.822 280.189 157.832 277.179 161.532 266.199C165.242 277.189 168.252 280.199 179.232 283.899Z" stroke="#262A4E" stroke-width="5" stroke-linecap="round" stroke-linejoin="round"/>
<path d="M336.088 20.7C325.098 24.41 322.087 27.42 318.387 38.4C314.677 27.41 311.667 24.4 300.688 20.7C311.677 16.99 314.687 13.98 318.387 3C322.097 13.99 325.108 17 336.088 20.7Z" fill="#262A4E"/>
<path d="M336.088 20.7C325.098 24.41 322.087 27.42 318.387 38.4C314.677 27.41 311.667 24.4 300.688 20.7C311.677 16.99 314.687 13.98 318.387 3C322.097 13.99 325.108 17 336.088 20.7Z" stroke="#262A4E" stroke-width="5" stroke-linecap="round" stroke-linejoin="round"/>
<path d="M398.192 35.7889C394.102 37.3889 392.982 38.6889 391.602 43.4289C390.222 38.6889 389.102 37.3889 385.012 35.7889C389.102 34.1889 390.222 32.8889 391.602 28.1489C392.982 32.8889 394.102 34.1889 398.192 35.7889Z" fill="#262A4E"/>
<path d="M398.192 35.7889C394.102 37.3889 392.982 38.6889 391.602 43.4289C390.222 38.6889 389.102 37.3889 385.012 35.7889C389.102 34.1889 390.222 32.8889 391.602 28.1489C392.982 32.8889 394.102 34.1889 398.192 35.7889Z" stroke="#262A4E" stroke-width="5" stroke-linecap="round" stroke-linejoin="round"/>
<path d="M1018.08 137.697C1008.6 141.407 1006.01 144.417 1002.81 155.397C999.609 144.407 997.019 141.397 987.539 137.697C997.019 133.987 999.609 130.977 1002.81 119.997C1006.01 130.987 1008.6 133.997 1018.08 137.697Z" fill="#262A4E"/>
<path d="M1018.08 137.697C1008.6 141.407 1006.01 144.417 1002.81 155.397C999.609 144.407 997.019 141.397 987.539 137.697C997.019 133.987 999.609 130.977 1002.81 119.997C1006.01 130.987 1008.6 133.997 1018.08 137.697Z" stroke="#262A4E" stroke-width="5" stroke-linecap="round" stroke-linejoin="round"/>
<path d="M1078.26 162.741C1072.07 165.631 1070.38 167.971 1068.29 176.521C1066.2 167.971 1064.51 165.631 1058.32 162.741C1064.51 159.851 1066.2 157.511 1068.29 148.961C1070.38 157.511 1072.07 159.851 1078.26 162.741Z" fill="#262A4E" stroke="#262A4E" stroke-width="5" stroke-linecap="round" stroke-linejoin="round"/>
<path d="M876.719 70.7871L887.713 66.8138L902.056 106.502C903.15 109.53 901.577 112.884 898.549 113.979C895.52 115.073 892.166 113.5 891.071 110.471L876.728 70.7837L876.719 70.7871Z" fill="white" stroke="#262A4E" stroke-width="5" stroke-linecap="round" stroke-linejoin="round"/>
<path d="M879.11 85.7908C893.266 85.7908 904.74 74.3158 904.74 60.1608C904.74 46.0057 893.266 34.5308 879.11 34.5308C864.955 34.5308 853.48 46.0057 853.48 60.1608C853.48 74.3158 864.955 85.7908 879.11 85.7908Z" fill="#FFE156" stroke="#262A4E" stroke-width="5" stroke-linecap="round" stroke-linejoin="round"/>
<path d="M896.681 54.231C897.851 64.891 890.151 74.491 879.491 75.661C870.961 76.601 863.281 70.441 862.351 61.911C861.601 55.081 866.531 48.941 873.351 48.201C878.811 47.601 883.721 51.541 884.321 57.001C884.801 61.371 881.651 65.301 877.281 65.781C873.791 66.161 870.641 63.641 870.261 60.151" stroke="#D36C5A" stroke-width="5" stroke-linecap="round" stroke-linejoin="round"/>
<path d="M47.4694 201.141C47.4694 201.141 57.1894 208.431 65.8494 210.311C67.7094 205.971 66.5295 200.211 64.3195 198.671C71.6395 195.491 67.7494 181.911 59.9494 185.891C60.7694 180.351 47.6894 176.521 47.6894 176.521C47.6894 176.521 44.9594 189.491 47.4694 201.132V201.141Z" fill="white" stroke="#262A4E" stroke-width="5" stroke-linecap="round" stroke-linejoin="round"/>
<path d="M47.4694 201.141C47.4694 201.141 57.1894 208.431 65.8494 210.311C67.7094 205.971 66.5295 200.211 64.3195 198.671C71.6395 195.491 67.7494 181.911 59.9494 185.891C60.7694 180.351 47.6894 176.521 47.6894 176.521C47.6894 176.521 44.9594 189.491 47.4694 201.132V201.141Z" stroke="#262A4E" stroke-width="5" stroke-linecap="round" stroke-linejoin="round"/>
<path d="M64.3207 198.671L47.4707 201.141" stroke="#262A4E" stroke-width="5" stroke-linecap="round" stroke-linejoin="round"/>
<path d="M59.9407 185.892L47.4707 201.142" stroke="#262A4E" stroke-width="5" stroke-linecap="round" stroke-linejoin="round"/>
<path d="M25.1403 213.352C25.1403 213.352 16.8903 204.431 8.7103 201.021C6.0903 204.951 6.2303 210.831 8.1203 212.741C0.340304 214.551 1.7303 228.612 10.1203 226.102C8.3203 231.402 20.4903 237.521 20.4903 237.521C20.4903 237.521 25.5103 225.252 25.1303 213.352H25.1403Z" fill="white" stroke="#262A4E" stroke-width="5" stroke-linecap="round" stroke-linejoin="round"/>
<path d="M25.1403 213.352C25.1403 213.352 16.8903 204.431 8.7103 201.021C6.0903 204.951 6.2303 210.831 8.1203 212.741C0.340304 214.551 1.7303 228.612 10.1203 226.102C8.3203 231.402 20.4903 237.521 20.4903 237.521C20.4903 237.521 25.5103 225.252 25.1303 213.352H25.1403Z" stroke="#262A4E" stroke-width="5" stroke-linecap="round" stroke-linejoin="round"/>
<path d="M8.12109 212.742L25.1411 213.352" stroke="#262A4E" stroke-width="5" stroke-linecap="round" stroke-linejoin="round"/>
<path d="M10.1211 226.102L25.1411 213.352" stroke="#262A4E" stroke-width="5" stroke-linecap="round" stroke-linejoin="round"/>
<path d="M35.9795 225.542C45.2082 225.542 52.6895 218.06 52.6895 208.832C52.6895 199.603 45.2082 192.122 35.9795 192.122C26.7509 192.122 19.2695 199.603 19.2695 208.832C19.2695 218.06 26.7509 225.542 35.9795 225.542Z" fill="white" stroke="#262A4E" stroke-width="5" stroke-linecap="round" stroke-linejoin="round"/>
<path d="M35.9795 225.542C45.2082 225.542 52.6895 218.06 52.6895 208.832C52.6895 199.603 45.2082 192.122 35.9795 192.122C26.7509 192.122 19.2695 199.603 19.2695 208.832C19.2695 218.06 26.7509 225.542 35.9795 225.542Z" stroke="#262A4E" stroke-width="5" stroke-linecap="round" stroke-linejoin="round"/>
</svg>
