<svg width="237" height="257" viewBox="0 0 237 257" fill="none" xmlns="http://www.w3.org/2000/svg">
<path opacity="0.64" d="M32.9821 148.701C32.9688 148.674 32.9547 148.647 32.9398 148.618C32.6384 148.03 32.167 147.207 31.6129 146.282C30.5751 144.548 29.3432 142.611 28.6467 141.516L28.5282 141.329C28.5282 141.329 28.5281 141.329 28.5281 141.329C21.4811 130.247 16.1115 121.758 12.7584 115.204C11.0785 111.921 9.8456 109.012 9.16795 106.423C8.4897 103.832 8.32329 101.394 8.96762 99.152L8.96771 99.1516C9.95738 95.709 12.2167 92.4906 14.9436 90.1857C17.6396 87.907 21.1318 86.2473 24.679 86.5421C28.7108 86.8773 31.7949 89.6405 34.1061 92.7712C36.1262 95.5075 37.8171 98.8756 39.2488 102.179C38.0464 95.6753 36.9795 87.5306 36.9795 78.0577C36.9795 65.0339 40.7407 56.3282 43.94 50.1444C44.458 49.1432 44.9387 48.2467 45.3769 47.4294C46.3366 45.6396 47.0927 44.2294 47.5917 42.9299C48.2684 41.1673 48.1517 40.3777 47.7651 39.7464C46.5093 37.6952 45.2721 35.5572 44.0538 33.4519C43.2308 32.0296 42.4164 30.6223 41.6108 29.2667C41.1351 28.4664 40.6901 27.7202 40.2747 27.0235C38.3668 23.8242 37.0816 21.6691 36.2977 20.1005C35.2765 18.057 34.8736 16.5646 35.1497 14.7091C35.6791 11.1504 38.3532 7.94245 41.4452 5.81353C44.5828 3.65311 48.6862 2.22398 52.687 2.76246L32.9821 148.701ZM32.9821 148.701C30.7243 156.985 24.5558 170.355 18.553 180.942C18.1767 181.606 17.7589 182.334 17.309 183.117C13.9302 189.003 8.73985 198.044 5.67387 206.857C3.93805 211.846 2.79007 217.008 3.15857 221.636C3.53648 226.383 5.53577 230.669 10.0803 233.407C14.6145 236.138 19.9725 235.991 25.0949 234.691C30.2389 233.386 35.5481 230.82 40.3433 228.164C42.7545 226.829 45.0707 225.451 47.1985 224.172C47.5704 223.948 47.9356 223.728 48.2943 223.512C50.0031 222.483 51.5607 221.545 52.9599 220.749C54.6742 219.773 56.01 219.093 56.9787 218.738C57.2832 218.627 57.4997 218.568 57.6417 218.537L57.7719 218.586C58.1309 218.721 58.5886 219.055 59.1245 219.898C59.6684 220.752 60.1759 221.947 60.6916 223.509C61.1775 224.98 61.6279 226.639 62.1273 228.479L62.2097 228.782C62.7349 230.716 63.3102 232.813 64.0062 234.918C65.3918 239.109 67.3203 243.544 70.5431 247.122C73.8276 250.768 78.3508 253.406 84.6481 254.132C92.1623 254.999 97.3879 253.288 101.024 249.776C104.51 246.407 106.172 241.7 107.375 237.443C107.68 236.363 107.963 235.281 108.236 234.237L108.239 234.227C108.515 233.172 108.78 232.158 109.058 231.178C109.617 229.205 110.195 227.491 110.912 226.074C111.623 224.667 112.413 223.672 113.334 223.02C114.223 222.392 115.4 221.964 117.119 221.964C120.561 221.964 123.265 223.51 125.852 226.22C128.177 228.654 130.208 231.806 132.466 235.309C132.806 235.837 133.152 236.374 133.505 236.918C138.679 244.887 145.223 254.149 158.012 254.149C161.162 254.149 163.801 253.528 165.936 252.263C168.094 250.984 169.551 249.156 170.497 247.068C172.316 243.055 172.298 237.929 172.014 233.31C171.917 231.732 171.79 230.213 171.669 228.758C171.412 225.677 171.179 222.888 171.305 220.458C171.396 218.714 171.669 217.491 172.08 216.693C172.432 216.009 172.874 215.635 173.602 215.452C175.403 214.998 177.305 215.645 179.923 217.778C181.728 219.249 183.515 221.113 185.549 223.234C186.529 224.257 187.567 225.339 188.691 226.465C195.352 233.14 204.248 240.426 217.767 238.57C221.322 238.082 224.108 236.673 226.029 234.373C227.919 232.11 228.745 229.253 228.938 226.271C229.318 220.396 227.29 213.219 224.651 206.518C221.979 199.734 218.538 193.093 215.781 188.17C214.4 185.703 213.183 183.655 212.31 182.221C211.874 181.504 211.523 180.94 211.28 180.554C211.171 180.381 211.084 180.243 211.021 180.143C206.138 168.402 202.741 161.299 200.583 156.889C200.31 156.333 200.061 155.826 199.833 155.362C199.139 153.951 198.642 152.941 198.296 152.163C198.07 151.653 197.95 151.334 197.89 151.131C197.882 151.104 197.876 151.082 197.871 151.063C198.086 149.382 199.46 147.359 202.35 144.832C204.96 142.55 208.345 140.238 212.058 137.702C212.441 137.441 212.827 137.177 213.217 136.91C217.308 134.111 221.673 131.06 225.327 127.678C228.97 124.306 232.112 120.421 233.521 115.874C235.98 107.935 231.858 99.5275 226.987 95.4674C222.994 92.138 217.818 93.3725 213.486 95.5588C208.992 97.8266 204.287 101.643 200.185 105.464C197.712 107.768 195.408 110.121 193.441 112.227C193.677 110.559 193.899 108.695 194.083 106.659C194.899 97.6127 194.95 85.1134 191.956 71.2882C188.925 57.2857 183.819 50.1011 179.905 45.0253C179.675 44.7266 179.453 44.4401 179.239 44.1643C177.605 42.0558 176.454 40.5701 175.747 39.0356C175.045 37.5111 174.8 35.9432 175.408 33.6375L175.409 33.6372C176.669 28.8608 177.97 25.9206 178.987 23.6244C179.164 23.2237 179.333 22.8426 179.491 22.4748C180.019 21.2465 180.512 19.9902 180.706 18.6411C180.911 17.2151 180.767 15.8255 180.259 14.2917C179.407 11.7166 177.475 9.47246 175.281 7.89313C173.084 6.31246 170.334 5.18762 167.597 5.1876C165.731 5.18758 164.308 6.01345 163.208 7.08917C162.196 8.07785 161.334 9.40194 160.544 10.6412C160.442 10.8003 160.34 10.9614 160.236 11.1242C158.735 13.4867 157.002 16.2133 154.105 18.9064C152.522 19.1967 150.809 19.1112 148.603 18.7184C146.876 18.411 145.008 17.95 142.759 17.3954C141.676 17.1284 140.506 16.8398 139.221 16.5361C131.427 14.6938 120.466 12.577 103.317 12.577H103.195L103.073 12.5889C88.9263 13.9726 81.875 17.1568 77.4193 19.9866C76.3503 20.6655 75.452 21.3106 74.6966 21.853L74.6609 21.8786C73.8713 22.4456 73.295 22.8559 72.7589 23.1692C71.8424 23.7049 71.2056 23.8733 70.1793 23.6876M32.9821 148.701L70.1793 23.6876M70.1793 23.6876C68.2164 23.3323 66.9802 22.3404 65.9899 20.8585C64.9137 19.248 64.1996 17.1731 63.3667 14.6985L63.3166 14.5496C62.5481 12.2653 61.6509 9.59856 60.1707 7.4328C58.559 5.07466 56.216 3.23708 52.6874 2.76251L70.1793 23.6876ZM33.1848 149.138C33.1841 149.136 33.1834 149.134 33.1826 149.132C33.1879 149.149 33.1895 149.151 33.1848 149.138Z" fill="#D9D9D9" stroke="#262A4E" stroke-width="5" stroke-miterlimit="10"/>
<path d="M74.9237 129.112H75.0239L75.1239 129.12L74.9237 131.612C75.1239 129.12 75.125 129.12 75.1261 129.12L75.1283 129.12L75.1329 129.121L75.1427 129.121L75.1643 129.123C75.1796 129.125 75.1969 129.127 75.216 129.129C75.2542 129.133 75.3 129.138 75.3534 129.146C75.4602 129.16 75.5974 129.182 75.7652 129.214C76.101 129.278 76.5592 129.384 77.1433 129.558C78.3072 129.905 79.9705 130.525 82.1611 131.628C83.0866 132.072 83.7936 132.422 84.3601 132.703C85.7371 133.386 86.2849 133.658 87.1265 133.857C88.3277 134.142 89.9578 134.216 94.6271 134.43C94.7946 134.437 94.9661 134.445 95.1416 134.453L95.6139 134.475C95.6471 134.475 95.6825 134.476 95.7201 134.477C96.1334 134.483 96.7584 134.485 97.5629 134.476C99.1703 134.459 101.472 134.4 104.198 134.248C109.666 133.944 116.768 133.273 123.389 131.85L123.403 131.847L123.416 131.844C125.009 131.52 126.489 131.203 127.864 130.909C130.487 130.347 132.731 129.866 134.66 129.575C137.705 129.115 140.357 129.054 143.13 129.888L143.48 129.993L143.786 130.194C149.265 133.806 150.763 140.332 149.327 146.21C147.9 152.049 143.539 157.649 136.698 160.186C134.02 161.773 130.327 162.94 126.258 163.752C122.026 164.597 117.196 165.094 112.286 165.219C102.688 165.462 92.3666 164.292 85.4987 161.187C79.8881 159.958 74.1216 156.176 70.423 151.487C66.724 146.798 64.6163 140.478 68.0448 134.705C68.0497 134.692 68.0546 134.68 68.0595 134.667C68.3581 133.887 68.8012 132.731 69.61 131.734C70.6064 130.505 71.9996 129.656 73.9307 129.183L74.2234 129.112H74.5247H74.9237Z" fill="#F0A498" stroke="#6B6E85" stroke-width="5" stroke-miterlimit="10"/>
<path opacity="0.61" d="M134.386 155.69C134.555 155.768 134.684 155.809 134.871 155.869C134.892 155.876 134.915 155.883 134.938 155.891C134.942 155.892 134.946 155.893 134.952 155.895C135.036 155.922 135.343 156.018 135.635 156.181C135.989 156.378 136.856 156.975 136.997 158.193L137.2 159.949L135.613 160.726C132.855 162.075 130.483 162.754 128.784 163.125C128.334 163.225 127.379 163.416 123.767 163.889L123.767 163.889C121.545 164.18 119.697 164.397 118.397 164.542C117.153 164.714 115.563 164.902 113.709 165.041L113.708 165.041C112.041 165.166 109.222 165.322 105.704 165.216M134.386 155.69L98.892 164.711C101.433 165.088 104.144 165.169 105.579 165.212C105.622 165.214 105.664 165.215 105.704 165.216M134.386 155.69C134.061 155.519 133.757 155.353 133.466 155.194C131.919 154.351 130.702 153.687 128.405 153.289C127.423 153.005 126.456 152.71 125.49 152.415C120.321 150.838 115.174 149.269 107.921 149.382L107.867 149.383L107.813 149.386C105.88 149.5 100.897 150.101 96.1635 151.123C93.7976 151.633 91.3965 152.269 89.434 153.039C88.4548 153.424 87.5085 153.871 86.7072 154.397C85.946 154.898 85.0776 155.623 84.5781 156.658L84.3296 157.173V157.727C84.3149 158.887 84.9042 159.741 85.3812 160.242C85.8703 160.756 86.4674 161.146 87.0086 161.443C88.1037 162.045 89.4987 162.547 90.8733 162.959C93.6583 163.794 96.9032 164.416 98.8919 164.711L134.386 155.69ZM105.704 165.216C105.704 165.216 105.705 165.216 105.705 165.216L105.78 162.717L105.704 165.216ZM113.522 162.548C115.331 162.412 116.881 162.229 118.086 162.061C119.375 161.918 121.22 161.701 123.443 161.41L113.522 162.548Z" fill="#D36C5A" stroke="#6B6E85" stroke-width="5" stroke-miterlimit="10"/>
<path opacity="0.4" d="M110.822 118.458L110.786 118.463L110.749 118.468C107.774 118.819 99.062 119.763 90.6171 115.027L90.5504 114.989L90.4861 114.948C78.5631 107.266 73.9211 93.033 74.588 79.7756C75.2511 66.5924 81.2242 53.3904 91.7737 47.8662L91.9015 47.7993L92.0361 47.7475C99.5555 44.8557 105.623 44.0593 111.185 45.2105C116.716 46.3553 121.412 49.3608 126.285 53.3825L127.193 54.1325V54.1575C137.725 63.3894 143.088 77.6414 141.29 90.5142C140.361 97.171 137.507 103.488 132.431 108.495C127.352 113.504 120.179 117.072 110.822 118.458Z" fill="white" stroke="#262A4E" stroke-width="5" stroke-miterlimit="10"/>
<path opacity="0.63" d="M109.01 101.534L108.822 101.539L108.635 101.515C102.053 100.692 97.491 97.4239 94.8635 93.0549C92.284 88.7658 91.6732 83.5993 92.543 79.0059C93.4075 74.441 95.8119 70.0844 99.6964 67.6987C103.704 65.2374 108.784 65.1785 114.209 68.2744C121.633 71.4075 124.838 79.6305 124.175 86.7642C123.835 90.4244 122.475 94.0458 119.926 96.8147C117.339 99.6258 113.655 101.414 109.01 101.534Z" fill="#262A4E" stroke="#262A4E" stroke-width="5" stroke-miterlimit="10"/>
</svg>
