<svg width="360" height="392" viewBox="0 0 360 392" fill="none" xmlns="http://www.w3.org/2000/svg">
<path opacity="0.64" d="M318.436 215.009C329.33 197.877 337.58 184.831 342.721 174.783C345.295 169.751 347.149 165.361 348.16 161.5C349.171 157.638 349.381 154.14 348.477 150.994L348.477 150.993C347.034 145.971 343.714 141.223 339.68 137.813C335.676 134.429 330.63 132.089 325.639 132.504C320.002 132.973 315.552 136.852 312.066 141.574C308.543 146.346 305.655 152.448 303.244 158.28C302.032 161.212 300.925 164.116 299.912 166.789L299.658 167.458C299.15 168.8 298.668 170.073 298.207 171.261C298.273 170.98 298.34 170.692 298.408 170.399C298.819 168.634 299.28 166.657 299.77 164.451C302.219 153.423 305.175 137.574 305.175 118.049C305.175 98.2365 299.464 85.0153 294.581 75.5773C293.814 74.0956 293.09 72.7445 292.42 71.4959C290.912 68.6822 289.683 66.3899 288.881 64.3009C287.773 61.4154 287.802 59.6916 288.723 58.1883C290.659 55.0264 292.548 51.7612 294.418 48.5283C295.69 46.3308 296.953 44.1482 298.216 42.0233C298.957 40.7769 299.647 39.6181 300.291 38.539C303.236 33.6001 305.186 30.3304 306.371 27.9579C307.883 24.9338 308.384 22.9232 308.015 20.4419C307.274 15.4612 303.473 10.7975 298.869 7.62739C294.219 4.42568 288.218 2.3698 282.464 3.14442C277.459 3.81758 274.16 6.39766 271.852 9.77475C269.674 12.9612 268.34 16.9248 267.135 20.5059L267.083 20.6591C265.811 24.4381 264.656 27.8263 262.875 30.4917C261.18 33.0284 258.975 34.8167 255.518 35.4424C253.548 35.7987 252.238 35.4312 250.607 34.4779C249.714 33.9557 248.77 33.2819 247.563 32.4158L247.515 32.381C246.346 31.5419 244.986 30.5651 243.369 29.538C236.698 25.3012 226.023 20.4408 204.357 18.3216L204.235 18.3098H204.113C177.763 18.3098 160.947 21.56 148.991 24.3859C147.048 24.8453 145.261 25.286 143.597 25.6961C140.095 26.5598 137.142 27.2882 134.431 27.7708C130.771 28.4226 127.843 28.5631 125.06 27.9826C120.28 23.6151 117.457 19.1728 115.093 15.4505C114.93 15.1942 114.769 14.9414 114.611 14.6923C113.376 12.757 112.125 10.8484 110.694 9.44929C109.173 7.9631 107.3 6.90079 104.868 6.90081C100.997 6.90084 97.0228 8.50108 93.7983 10.8219C90.5756 13.1414 87.8107 16.3903 86.6083 20.0244C85.8823 22.2183 85.691 24.1509 85.9737 26.1193C86.2454 28.0107 86.9411 29.8086 87.7524 31.6942C87.9932 32.2537 88.2512 32.8365 88.5235 33.4517C90.0957 37.0031 92.146 41.6348 94.1212 49.1189L94.1213 49.1192C95.1403 52.9787 94.7374 55.7237 93.5182 58.37C92.357 60.8903 90.4743 63.3188 87.975 66.5427C87.6412 66.9733 87.2963 67.418 86.9408 67.8791C80.9727 75.6183 73.2103 86.528 68.5861 107.885C64.0003 129.065 64.0777 148.221 65.328 162.086C65.7852 167.156 66.3998 171.524 67.0032 175.035C63.4463 171.093 58.7719 166.153 53.6248 161.358C47.32 155.485 40.1678 149.698 33.4039 146.284C26.8016 142.952 19.531 141.397 14.0417 145.974C6.82923 151.986 0.787592 164.43 4.38274 176.035C6.45523 182.726 11.1104 188.528 16.6585 193.663C22.2168 198.808 28.8784 203.467 35.1999 207.793C35.8035 208.206 36.4035 208.616 36.999 209.023C42.713 212.925 48.0107 216.543 52.1055 220.123C56.6998 224.14 59.1886 227.622 59.4984 230.813C59.4966 230.836 59.4856 230.967 59.4005 231.256C59.2833 231.654 59.0698 232.211 58.7113 233.018C58.1659 234.245 57.3814 235.84 56.3044 238.029C55.9544 238.74 55.5736 239.515 55.1601 240.359C51.83 247.162 46.5828 258.134 39.0331 276.297C39.0236 276.312 39.0136 276.328 39.003 276.344C38.9044 276.499 38.76 276.727 38.574 277.022C38.202 277.614 37.6636 278.48 36.9932 279.581C35.6527 281.783 33.7829 284.931 31.6593 288.723C27.4185 296.297 22.1374 306.491 18.0433 316.886C13.9817 327.197 10.9493 338.042 11.5156 346.797C11.8017 351.219 13.0189 355.318 15.6939 358.522C18.4 361.763 22.3655 363.809 27.591 364.526C47.7929 367.3 61.1121 356.469 71.3362 346.224C73.0174 344.54 74.5919 342.898 76.094 341.331C79.2717 338.017 82.125 335.041 84.9775 332.717C89.1206 329.341 92.5075 327.999 95.9273 328.861C97.4652 329.249 98.4494 330.104 99.1545 331.474C99.9184 332.958 100.356 335.072 100.499 337.839C100.699 341.684 100.328 346.141 99.9267 350.955C99.7412 353.181 99.5494 355.483 99.4047 357.836C98.9656 364.98 98.9747 372.578 101.628 378.433C102.991 381.442 105.068 384.034 108.125 385.845C111.16 387.644 114.978 388.567 119.665 388.567C138.606 388.567 148.348 374.928 156.363 362.582C156.903 361.751 157.434 360.926 157.96 360.11C161.435 354.716 164.65 349.725 168.335 345.866C172.49 341.516 176.998 338.875 182.803 338.875C185.703 338.875 187.804 339.604 189.432 340.756C191.093 341.93 192.44 343.671 193.601 345.967C194.767 348.272 195.687 351.019 196.557 354.09C196.991 355.619 197.404 357.198 197.829 358.824L197.831 358.833C198.254 360.448 198.688 362.109 199.156 363.764C201.008 370.319 203.498 377.269 208.598 382.197C213.848 387.269 221.473 389.855 232.781 388.55C242.171 387.467 248.852 383.553 253.704 378.167C258.494 372.85 261.399 366.212 263.516 359.809C264.578 356.598 265.457 353.392 266.268 350.406L266.4 349.921C267.167 347.096 267.871 344.501 268.633 342.194C269.442 339.745 270.267 337.776 271.197 336.314C272.119 334.866 273.03 334.094 273.954 333.747L274.314 333.612L274.405 333.541C274.419 333.542 274.435 333.542 274.452 333.544C274.775 333.566 275.316 333.682 276.124 333.978C277.735 334.566 279.881 335.666 282.535 337.176C284.712 338.415 287.135 339.875 289.774 341.465C290.326 341.797 290.888 342.135 291.458 342.478C294.741 344.451 298.3 346.569 302 348.618C309.374 352.702 317.449 356.595 325.219 358.567C332.967 360.533 340.811 360.685 347.365 356.737C353.929 352.783 356.841 346.61 357.398 339.621C357.945 332.75 356.241 324.989 353.585 317.356C348.897 303.881 340.954 290.042 335.731 280.944C335.035 279.731 334.387 278.602 333.802 277.569C324.398 260.983 314.682 239.904 311.262 226.984C311.336 226.823 311.435 226.619 311.562 226.371C312.049 225.421 312.795 224.121 313.654 222.686C315.266 219.993 317.177 216.988 318.251 215.299L318.436 215.009ZM318.436 215.009L316.327 213.667M318.436 215.009L318.436 215.008L316.327 213.667M316.327 213.667C338.165 179.324 349.022 161.943 346.075 151.684L308.699 227.061C308.087 226.623 313.928 217.438 316.14 213.961L316.327 213.667ZM274.277 333.543C274.275 333.543 274.278 333.542 274.288 333.542C274.282 333.543 274.279 333.543 274.277 333.543Z" fill="#D9D9D9" stroke="#262A4E" stroke-width="5" stroke-miterlimit="10"/>
<path d="M247.952 198.235H247.852L247.752 198.243L247.952 200.735C247.752 198.243 247.751 198.243 247.75 198.243L247.748 198.243L247.743 198.244L247.733 198.245L247.709 198.247C247.691 198.249 247.671 198.251 247.647 198.253C247.601 198.258 247.542 198.265 247.472 198.275C247.332 198.294 247.144 198.323 246.908 198.368C246.437 198.458 245.774 198.611 244.914 198.867C243.199 199.379 240.702 200.306 237.378 201.981C236.048 202.618 234.999 203.139 234.133 203.568C231.898 204.676 230.884 205.179 229.425 205.525C227.443 205.995 224.798 206.115 217.868 206.432C217.522 206.448 217.166 206.464 216.799 206.481L216.051 206.515C215.992 206.516 215.93 206.517 215.863 206.518C215.211 206.527 214.235 206.53 212.984 206.517C210.483 206.49 206.91 206.398 202.678 206.163C194.2 205.692 183.157 204.65 172.838 202.432L172.825 202.429L172.811 202.426C170.306 201.917 168.001 201.423 165.87 200.967C161.853 200.106 158.458 199.378 155.519 198.935C150.917 198.24 147.048 198.169 143.036 199.376L142.686 199.481L142.38 199.682C134.523 204.861 132.278 214.277 134.398 222.951C136.508 231.587 142.982 239.889 153.163 243.621C157.11 245.987 162.683 247.772 168.961 249.025C175.406 250.311 182.785 251.072 190.3 251.263C205.108 251.639 220.871 249.812 231.195 245.1C239.563 243.308 248.267 237.636 253.833 230.58C259.399 223.524 262.308 214.355 257.345 206.107C257.324 206.053 257.303 205.998 257.282 205.942C256.812 204.721 256.204 203.14 255.1 201.78C253.781 200.153 251.909 198.979 249.162 198.307L248.87 198.235H248.568H247.952Z" fill="#F0A498" stroke="#6B6E85" stroke-width="5" stroke-miterlimit="10"/>
<path opacity="0.61" d="M200.387 251.259C195.017 251.421 190.715 251.182 188.172 250.992L188.171 250.992C185.332 250.779 182.899 250.492 181 250.228C178.998 250.005 176.147 249.67 172.716 249.221L172.716 249.221C167.142 248.492 165.718 248.202 165.086 248.061C162.547 247.508 158.99 246.49 154.848 244.464L153.261 243.687L153.464 241.931C153.607 240.687 154.492 240.071 154.877 239.857C155.2 239.676 155.55 239.565 155.685 239.522C155.693 239.52 155.701 239.517 155.708 239.515C155.743 239.504 155.778 239.493 155.812 239.482C156.114 239.386 156.391 239.297 156.749 239.13C157.286 238.847 157.779 238.578 158.245 238.324C160.627 237.028 162.325 236.104 165.684 235.53C167.252 235.077 168.788 234.609 170.314 234.144C178.284 231.715 186.015 229.359 196.984 229.531L197.038 229.531L197.092 229.535C200 229.706 207.624 230.624 214.872 232.188C218.494 232.97 222.12 233.933 225.052 235.084C226.515 235.658 227.882 236.308 229.011 237.051C230.101 237.767 231.206 238.721 231.821 239.997L232.07 240.512V241.066M200.387 251.259C200.386 251.259 200.386 251.259 200.386 251.259L200.311 248.76L200.387 251.259ZM200.387 251.259C200.445 251.257 200.506 251.255 200.568 251.254C202.785 251.187 206.904 251.064 210.746 250.494M210.746 250.494C213.775 250.044 218.717 249.096 222.936 247.831C225.027 247.204 227.073 246.461 228.639 245.601C229.415 245.175 230.202 244.651 230.821 244.001C231.428 243.364 232.088 242.369 232.07 241.066M210.746 250.494L210.379 248.021L210.746 250.494ZM232.07 241.066V241.083V241.088H229.57L229.766 241.083L232.069 241.026C232.069 241.039 232.069 241.052 232.07 241.066ZM188.358 248.499C185.564 248.289 183.172 248.006 181.311 247.748C179.32 247.525 176.473 247.191 173.04 246.742C167.465 246.013 166.139 245.734 165.623 245.62L188.358 248.499ZM188.358 248.499L188.358 248.499L188.358 248.499Z" fill="#D36C5A" stroke="#6B6E85" stroke-width="5" stroke-miterlimit="10"/>
<path opacity="0.4" d="M192.724 179.081L192.761 179.086L192.797 179.09C197.35 179.629 210.42 181.029 223.055 173.942L223.122 173.904L223.186 173.863C241.056 162.351 248.125 140.931 247.111 120.77C246.1 100.684 237.006 80.8617 221.304 72.6398L221.176 72.5729L221.042 72.5211C209.58 68.1132 200.489 66.9594 192.24 68.6665C184.023 70.3672 176.98 74.842 169.517 81.0009L168.608 81.7509V81.769C152.372 95.7195 144.094 117.505 146.83 137.094C148.229 147.107 152.514 156.576 160.117 164.075C167.723 171.576 178.518 176.977 192.724 179.081Z" fill="white" stroke="#262A4E" stroke-width="5" stroke-miterlimit="10"/>
<path opacity="0.63" d="M195.361 152.936L195.549 152.941L195.735 152.917C205.498 151.696 212.167 146.878 216.001 140.504C219.787 134.209 220.703 126.581 219.413 119.766C218.128 112.98 214.577 106.643 208.993 103.214C203.285 99.7086 195.952 99.5449 187.901 104.166C177.088 108.685 172.276 120.73 173.265 131.366C173.768 136.778 175.774 142.071 179.471 146.089C183.207 150.148 188.542 152.76 195.361 152.936Z" fill="#262A4E" stroke="#262A4E" stroke-width="5" stroke-miterlimit="10"/>
</svg>
