<svg width="1374" height="1206" viewBox="0 0 1374 1206" fill="none" xmlns="http://www.w3.org/2000/svg">
<path d="M1472.63 1025.55C1472.63 1071.87 1389.88 1205.58 1389.88 1205.58H-6.709C-6.709 1205.58 -128.861 1124.98 -128.861 1025.55C-128.861 926.114 183.019 845.508 699.48 845.508C1215.94 845.508 1472.63 926.114 1472.63 1025.55Z" fill="#0B0C1E"/>
<circle cx="257.918" cy="150.83" r="150.191" fill="url(#paint0_linear_108_905)"/>
<circle r="18.4196" transform="matrix(-1 0 0 1 320.261 64.3999)" fill="url(#paint1_linear_108_905)"/>
<circle r="8.50137" transform="matrix(-1 0 0 1 352.849 130.994)" fill="url(#paint2_linear_108_905)"/>
<circle r="14.1689" transform="matrix(-1 0 0 1 245.165 116.825)" fill="url(#paint3_linear_108_905)"/>
<circle r="12.752" transform="matrix(-1 0 0 1 340.098 214.59)" fill="url(#paint4_linear_108_905)"/>
<circle r="15.5858" transform="matrix(-1 0 0 1 235.247 203.256)" fill="url(#paint5_linear_108_905)"/>
<circle r="11.3352" transform="matrix(-1 0 0 1 296.174 162.166)" fill="url(#paint6_linear_108_905)"/>
<circle r="11.3352" transform="matrix(-1 0 0 1 313.177 261.348)" fill="url(#paint7_linear_108_905)"/>
<circle r="9.91826" transform="matrix(-1 0 0 1 226.747 64.4)" fill="url(#paint8_linear_108_905)"/>
<path d="M106.31 150.83C106.31 233.779 173.041 301.021 255.358 301.021C265.042 301.021 274.509 300.091 283.678 298.314C214.903 284.984 162.948 224.021 162.948 150.83C162.948 77.6397 214.903 16.6768 283.678 3.34714C274.509 1.57011 265.042 0.639648 255.358 0.639648C173.041 0.639648 106.31 67.8824 106.31 150.83Z" fill="url(#paint9_linear_108_905)"/>
<g filter="url(#filter0_d_108_905)">
<circle cx="713.485" cy="585.425" r="4.90549" fill="url(#paint10_radial_108_905)"/>
<circle cx="410.512" cy="284.532" r="5.27718" fill="url(#paint11_radial_108_905)"/>
<circle cx="1317.99" cy="318.425" r="5.71764" fill="url(#paint12_radial_108_905)"/>
<circle cx="120.739" cy="544.529" r="5.28335" fill="url(#paint13_radial_108_905)"/>
<circle cx="76.526" cy="365.08" r="3.50651" fill="url(#paint14_radial_108_905)"/>
<circle cx="570.209" cy="93.1521" r="7.31299" fill="url(#paint15_radial_108_905)"/>
<circle cx="1046.03" cy="328.946" r="4.80359" fill="url(#paint16_radial_108_905)"/>
<circle cx="920.269" cy="23.4876" r="4.21443" fill="url(#paint17_radial_108_905)"/>
</g>
<g filter="url(#filter1_d_108_905)">
<path d="M887.513 98.0315L889.638 114.688L906.295 116.813L889.638 118.938L887.513 135.595L885.388 118.938L868.731 116.813L885.388 114.688L887.513 98.0315Z" fill="#FFE156"/>
<path d="M1271.75 399.032L1274.44 420.13L1295.54 422.822L1274.44 425.513L1271.75 446.611L1269.06 425.513L1247.96 422.822L1269.06 420.13L1271.75 399.032Z" fill="#FFE156"/>
<path d="M193.712 391.178L195.502 405.21L209.534 407L195.502 408.79L193.712 422.822L191.922 408.79L177.891 407L191.922 405.21L193.712 391.178Z" fill="#FFE156"/>
<path d="M708.3 8.92041L710.425 25.5772L727.082 27.7021L710.425 29.827L708.3 46.4839L706.175 29.827L689.519 27.7021L706.175 25.5772L708.3 8.92041Z" fill="#FFE156"/>
<path d="M390.382 529.241L393.168 551.085L415.013 553.872L393.168 556.658L390.382 578.502L387.595 556.658L365.751 553.872L387.595 551.085L390.382 529.241Z" fill="#FFE156"/>
</g>
<rect x="227.754" y="856.012" width="206.388" height="20.9419" transform="rotate(-10.6431 227.754 856.012)" fill="#0B0C1E"/>
<rect x="220.075" y="877.935" width="229.581" height="20.9419" transform="rotate(-10.6431 220.075 877.935)" fill="#0B0C1E"/>
<path d="M235.095 735.669C227.572 695.637 253.926 657.086 293.958 649.563C333.99 642.04 372.541 668.394 380.064 708.426L401.658 823.332L256.689 850.575L235.095 735.669Z" fill="#0B0C1E"/>
<rect x="277.084" y="597.334" width="13.8758" height="56.4111" transform="rotate(-10.6431 277.084 597.334)" fill="#0B0C1E"/>
<rect x="313.071" y="610.208" width="15.0225" height="52.1053" transform="rotate(79.3569 313.071 610.208)" fill="#0B0C1E"/>
<rect x="1310.31" y="912.061" width="170.659" height="17.3166" transform="rotate(20.313 1310.31 912.061)" fill="#0B0C1E"/>
<rect x="1295.54" y="924.34" width="189.837" height="17.3166" transform="rotate(20.313 1295.54 924.34)" fill="#0B0C1E"/>
<path d="M1366.7 829.848C1378.39 798.261 1413.48 782.133 1445.06 793.826C1476.65 805.518 1492.78 840.603 1481.09 872.19L1447.52 962.854L1333.14 920.512L1366.7 829.848Z" fill="#0B0C1E"/>
<rect x="1048.24" y="847.44" width="182.151" height="24.746" transform="rotate(7.57209 1048.24 847.44)" fill="#0B0C1E"/>
<rect x="1032.05" y="870.252" width="208.235" height="19.5166" transform="rotate(7.57209 1032.05 870.252)" fill="#0B0C1E"/>
<path fill-rule="evenodd" clip-rule="evenodd" d="M1169.94 623.109C1129.2 617.694 1091.79 646.329 1086.37 687.068L1064.76 849.636L1212.29 869.248L1233.9 706.679C1236.31 688.557 1231.98 671.093 1222.84 656.811L1209.36 665.563L1215.02 669.537L1198.32 676.659L1202.49 679.146L1192.91 685.605L1198.67 679.997L1194.17 676.108C1199.84 673.748 1210.95 668.997 1210.06 668.877C1209.16 668.758 1206.93 666.314 1205.93 665.107L1219.82 652.437C1208.25 636.898 1190.66 625.864 1169.94 623.109Z" fill="#0B0C1E"/>
<rect x="577.553" y="827.737" width="143.579" height="17.1513" transform="rotate(0.105006 577.553 827.737)" fill="#0B0C1E"/>
<rect x="567.241" y="844.869" width="164.141" height="13.5268" transform="rotate(0.105006 567.241 844.869)" fill="#0B0C1E"/>
<path fill-rule="evenodd" clip-rule="evenodd" d="M649.645 662.627C617.25 662.567 590.941 688.78 590.882 721.175L590.686 827.761L707.998 827.976L708.194 721.39C708.221 706.255 702.515 692.449 693.122 682.027L684.807 688.259L689.638 690.481L677.32 696.877L680.834 698.211L674.012 703.511L677.938 699.14L674.024 696.871C678.212 694.739 686.408 690.475 685.695 690.474C684.982 690.473 682.988 688.993 682.08 688.254L690.592 679.389C680.038 669.045 665.59 662.656 649.645 662.627Z" fill="#0B0C1E"/>
<rect x="-4.67969" y="752.645" width="169.892" height="30" transform="rotate(-10.0603 -4.67969 752.645)" fill="#0B0C1E"/>
<rect x="81.543" y="666.496" width="247.582" height="30" transform="rotate(79.9397 81.543 666.496)" fill="#0B0C1E"/>
<path d="M144.346 740.523C150.512 775.275 127.338 808.445 92.5862 814.61C57.8346 820.776 24.6647 797.602 18.4994 762.85C12.334 728.099 35.5077 694.929 70.2594 688.763C105.011 682.598 138.181 705.772 144.346 740.523ZM43.6687 758.385C47.368 779.236 67.2699 793.14 88.1209 789.441C108.972 785.742 122.876 765.84 119.177 744.989C115.478 724.138 95.5758 710.233 74.7248 713.933C53.8738 717.632 39.9695 737.534 43.6687 758.385Z" fill="#0B0C1E"/>
<path d="M78.0522 914.797C74.9831 897.498 86.5189 880.986 103.818 877.917C121.117 874.848 137.629 886.384 140.698 903.683L145.215 929.144L82.5694 940.258L78.0522 914.797Z" fill="#0B0C1E"/>
<rect x="841.027" y="635.565" width="169.892" height="32.9078" transform="rotate(5.88001 841.027 635.565)" fill="#0B0C1E"/>
<rect x="948.287" y="569.682" width="271.58" height="30" transform="rotate(95.88 948.287 569.682)" fill="#0B0C1E"/>
<path d="M987.512 666.196C983.546 704.708 951.869 732.997 916.761 729.381C881.652 725.765 856.406 691.614 860.372 653.103C864.338 614.591 896.015 586.302 931.124 589.918C966.232 593.534 991.478 627.685 987.512 666.196ZM885.8 655.721C883.42 678.828 898.568 699.319 919.633 701.488C940.698 703.658 959.704 686.685 962.084 663.578C964.464 640.471 949.316 619.98 928.251 617.811C907.186 615.641 888.18 632.614 885.8 655.721Z" fill="#0B0C1E"/>
<path d="M874.632 827.923C876.432 810.446 892.058 797.737 909.535 799.537C927.012 801.337 939.721 816.964 937.921 834.441L934.699 865.724L871.41 859.206L874.632 827.923Z" fill="#0B0C1E"/>
<rect x="1176.16" y="484.243" width="342.347" height="16.8367" rx="8.41834" transform="rotate(8.78195 1176.16 484.243)" fill="#0B0C1E"/>
<rect x="1378.5" y="350.815" width="594.784" height="16.8367" rx="8.41834" transform="rotate(98.782 1378.5 350.815)" fill="#0B0C1E"/>
<defs>
<filter id="filter0_d_108_905" x="69.0195" y="15.2732" width="1258.69" height="579.057" filterUnits="userSpaceOnUse" color-interpolation-filters="sRGB">
<feFlood flood-opacity="0" result="BackgroundImageFix"/>
<feColorMatrix in="SourceAlpha" type="matrix" values="0 0 0 0 0 0 0 0 0 0 0 0 0 0 0 0 0 0 127 0" result="hardAlpha"/>
<feOffset/>
<feGaussianBlur stdDeviation="2"/>
<feComposite in2="hardAlpha" operator="out"/>
<feColorMatrix type="matrix" values="0 0 0 0 0 0 0 0 0 0 0 0 0 0 0 0 0 0 0.25 0"/>
<feBlend mode="normal" in2="BackgroundImageFix" result="effect1_dropShadow_108_905"/>
<feBlend mode="normal" in="SourceGraphic" in2="effect1_dropShadow_108_905" result="shape"/>
</filter>
<filter id="filter1_d_108_905" x="173.891" y="4.92041" width="1125.65" height="577.582" filterUnits="userSpaceOnUse" color-interpolation-filters="sRGB">
<feFlood flood-opacity="0" result="BackgroundImageFix"/>
<feColorMatrix in="SourceAlpha" type="matrix" values="0 0 0 0 0 0 0 0 0 0 0 0 0 0 0 0 0 0 127 0" result="hardAlpha"/>
<feOffset/>
<feGaussianBlur stdDeviation="2"/>
<feComposite in2="hardAlpha" operator="out"/>
<feColorMatrix type="matrix" values="0 0 0 0 0 0 0 0 0 0 0 0 0 0 0 0 0 0 0.25 0"/>
<feBlend mode="normal" in2="BackgroundImageFix" result="effect1_dropShadow_108_905"/>
<feBlend mode="normal" in="SourceGraphic" in2="effect1_dropShadow_108_905" result="shape"/>
</filter>
<linearGradient id="paint0_linear_108_905" x1="109.144" y1="150.83" x2="409.526" y2="150.83" gradientUnits="userSpaceOnUse">
<stop stop-color="#FFE156"/>
<stop offset="1" stop-color="#222A68"/>
</linearGradient>
<linearGradient id="paint1_linear_108_905" x1="0.173728" y1="18.4196" x2="37.013" y2="18.4196" gradientUnits="userSpaceOnUse">
<stop stop-color="#FFE156"/>
<stop offset="1" stop-color="#222A68" stop-opacity="0.39"/>
</linearGradient>
<linearGradient id="paint2_linear_108_905" x1="0.080182" y1="8.50137" x2="17.0829" y2="8.50137" gradientUnits="userSpaceOnUse">
<stop stop-color="#FFE156"/>
<stop offset="1" stop-color="#222A68" stop-opacity="0.39"/>
</linearGradient>
<linearGradient id="paint3_linear_108_905" x1="0.133637" y1="14.1689" x2="28.4715" y2="14.1689" gradientUnits="userSpaceOnUse">
<stop stop-color="#FFE156"/>
<stop offset="1" stop-color="#222A68" stop-opacity="0.39"/>
</linearGradient>
<linearGradient id="paint4_linear_108_905" x1="0.120273" y1="12.752" x2="25.6244" y2="12.752" gradientUnits="userSpaceOnUse">
<stop stop-color="#FFE156"/>
<stop offset="1" stop-color="#222A68" stop-opacity="0.39"/>
</linearGradient>
<linearGradient id="paint5_linear_108_905" x1="0.147" y1="15.5858" x2="31.3187" y2="15.5858" gradientUnits="userSpaceOnUse">
<stop stop-color="#FFE156"/>
<stop offset="1" stop-color="#222A68" stop-opacity="0.39"/>
</linearGradient>
<linearGradient id="paint6_linear_108_905" x1="0.106909" y1="11.3352" x2="22.7772" y2="11.3352" gradientUnits="userSpaceOnUse">
<stop stop-color="#FFE156"/>
<stop offset="1" stop-color="#222A68" stop-opacity="0.39"/>
</linearGradient>
<linearGradient id="paint7_linear_108_905" x1="0.106909" y1="11.3352" x2="22.7772" y2="11.3352" gradientUnits="userSpaceOnUse">
<stop stop-color="#FFE156"/>
<stop offset="1" stop-color="#222A68" stop-opacity="0.39"/>
</linearGradient>
<linearGradient id="paint8_linear_108_905" x1="0.0935457" y1="9.91826" x2="19.9301" y2="9.91826" gradientUnits="userSpaceOnUse">
<stop stop-color="#FFE156"/>
<stop offset="1" stop-color="#222A68" stop-opacity="0.39"/>
</linearGradient>
<linearGradient id="paint9_linear_108_905" x1="106.31" y1="150.83" x2="233.83" y2="150.83" gradientUnits="userSpaceOnUse">
<stop stop-color="#FFF6CE"/>
<stop offset="1" stop-color="#FFE156"/>
</linearGradient>
<radialGradient id="paint10_radial_108_905" cx="0" cy="0" r="1" gradientUnits="userSpaceOnUse" gradientTransform="translate(713.485 585.425) rotate(90) scale(4.90549)">
<stop offset="0.505208" stop-color="#FFE156"/>
</radialGradient>
<radialGradient id="paint11_radial_108_905" cx="0" cy="0" r="1" gradientUnits="userSpaceOnUse" gradientTransform="translate(410.512 284.532) rotate(90) scale(5.27718)">
<stop offset="0.505208" stop-color="#FFE156"/>
</radialGradient>
<radialGradient id="paint12_radial_108_905" cx="0" cy="0" r="1" gradientUnits="userSpaceOnUse" gradientTransform="translate(1317.99 318.425) rotate(90) scale(5.71764)">
<stop offset="0.505208" stop-color="#FFE156"/>
</radialGradient>
<radialGradient id="paint13_radial_108_905" cx="0" cy="0" r="1" gradientUnits="userSpaceOnUse" gradientTransform="translate(120.739 544.529) rotate(90) scale(5.28335)">
<stop offset="0.505208" stop-color="#FFE156"/>
</radialGradient>
<radialGradient id="paint14_radial_108_905" cx="0" cy="0" r="1" gradientUnits="userSpaceOnUse" gradientTransform="translate(76.526 365.08) rotate(90) scale(3.50651)">
<stop offset="0.505208" stop-color="#FFE156"/>
</radialGradient>
<radialGradient id="paint15_radial_108_905" cx="0" cy="0" r="1" gradientUnits="userSpaceOnUse" gradientTransform="translate(570.209 93.1521) rotate(90) scale(7.31299)">
<stop offset="0.505208" stop-color="#FFE156"/>
</radialGradient>
<radialGradient id="paint16_radial_108_905" cx="0" cy="0" r="1" gradientUnits="userSpaceOnUse" gradientTransform="translate(1046.03 328.946) rotate(90) scale(4.80359)">
<stop offset="0.505208" stop-color="#FFE156"/>
</radialGradient>
<radialGradient id="paint17_radial_108_905" cx="0" cy="0" r="1" gradientUnits="userSpaceOnUse" gradientTransform="translate(920.269 23.4876) rotate(90) scale(4.21443)">
<stop offset="0.505208" stop-color="#FFE156"/>
</radialGradient>
</defs>
</svg>
