<svg width="283" height="377" viewBox="0 0 283 377" fill="none" xmlns="http://www.w3.org/2000/svg">
<path d="M176.419 374.258C228.864 374.258 271.38 362.6 271.38 348.22C271.38 333.84 228.864 322.183 176.419 322.183C123.973 322.183 81.458 333.84 81.458 348.22C81.458 362.6 123.973 374.258 176.419 374.258Z" fill="#262A4E" stroke="#262A4E" stroke-width="5" stroke-linecap="round" stroke-linejoin="round"/>
<path d="M50.5724 235.294C41.748 236.108 25.855 243.581 20.2604 267.1C15.1336 288.664 17.6265 303.827 17.6265 303.827C18.9466 304.532 23.8235 306.223 26.938 306.877C26.201 298.399 23.9196 271.406 29.9051 259.442C38.0695 243.119 47.7463 239.415 47.7463 239.415L50.5724 235.294Z" fill="#D36C5A" stroke="#262A4E" stroke-width="5" stroke-linecap="round" stroke-linejoin="round"/>
<path d="M104.154 143.083C79.5134 135.553 48.2593 118.571 19.921 138.052C-8.41728 157.534 -7.26376 221.177 71.2016 202.483C107.807 146.902 104.16 143.089 104.16 143.089L104.154 143.083Z" fill="#262A4E" stroke="#262A4E" stroke-width="5" stroke-linecap="round" stroke-linejoin="round"/>
<path d="M90.5989 136.656C69.4189 152.472 50.8792 187.699 60.5239 231.738C70.1687 275.771 75.7505 319.425 58.7616 326.603C41.7727 333.78 57.3389 365.182 100.705 334.492C90.4323 355.794 122.359 374.955 153.902 334.133C190.385 359.53 206.086 327.853 205.355 312.857C231.118 319.701 271.651 311.344 273.125 293.939C274.593 276.527 250.42 274.56 250.42 274.56C250.42 274.56 260.763 270.83 268.722 264.274C294.318 243.184 271.356 219.895 255.258 231.617C247.651 237.153 240.756 247.945 233.213 241.389C221.146 230.899 216.077 173.927 197.114 152.305C178.151 130.683 140.239 99.5763 90.5989 136.656Z" fill="#66B6CC" stroke="#262A4E" stroke-width="5" stroke-linecap="round" stroke-linejoin="round"/>
<path d="M148.462 315.485C148.282 332.961 151.775 341.522 164.034 345.297C176.595 349.161 214.738 342.073 203.376 306.404" fill="#66B6CC"/>
<path d="M148.462 315.485C148.282 332.961 151.775 341.522 164.034 345.297C176.595 349.161 214.738 342.073 203.376 306.404" stroke="#262A4E" stroke-width="5" stroke-linecap="round" stroke-linejoin="round"/>
<path d="M211.279 283.929C228.376 284.608 226.383 277.168 236.945 278.36C247.512 279.546 250.377 295.817 239.687 308.858C228.998 321.899 209.779 325.264 197.814 310.909" fill="#66B6CC"/>
<path d="M211.279 283.929C228.376 284.608 226.383 277.168 236.945 278.36C247.512 279.546 250.377 295.817 239.687 308.858C228.998 321.899 209.779 325.264 197.814 310.909" stroke="#262A4E" stroke-width="5" stroke-linecap="round" stroke-linejoin="round"/>
<path d="M211.219 197.889C218.697 193.16 223.67 186.334 224.965 174.107C227.644 148.806 256.008 149.518 252.207 184.989C249.067 214.295 218.749 220.511 218.749 220.511" fill="#66B6CC"/>
<path d="M211.219 197.889C218.697 193.159 223.67 186.334 224.965 174.107C227.644 148.806 256.008 149.518 252.207 184.989C249.067 214.295 218.749 220.511 218.749 220.511" stroke="#262A4E" stroke-width="5" stroke-linecap="round" stroke-linejoin="round"/>
<path d="M76.4178 241.735C67.6125 240.87 60.1018 237.006 53.4498 226.662C39.6908 205.258 14.6721 218.645 34.0001 248.624C49.97 273.393 79.8527 265.331 79.8527 265.331" fill="#66B6CC"/>
<path d="M76.4178 241.735C67.6125 240.87 60.1018 237.006 53.4498 226.662C39.6908 205.258 14.6721 218.645 34.0001 248.624C49.97 273.393 79.8527 265.331 79.8527 265.331" stroke="#262A4E" stroke-width="5" stroke-linecap="round" stroke-linejoin="round"/>
<path d="M175.569 177.728C176.626 199.594 160.541 215.877 138.714 217.582C114.637 219.46 96.2382 206.194 98.635 183.04C100.891 161.264 114.445 142.59 136.31 141.533C158.176 140.475 174.511 155.862 175.569 177.728Z" fill="white" stroke="#262A4E" stroke-width="5" stroke-linecap="round" stroke-linejoin="round"/>
<path d="M157.664 177.619C158.19 188.481 149.788 197.389 138.951 198.235C126.993 199.171 117.143 191.019 118.335 179.522C119.457 168.705 126.186 159.432 137.048 158.906C147.91 158.381 157.139 166.757 157.664 177.619Z" fill="#262A4E" stroke="#262A4E" stroke-width="5" stroke-linecap="round" stroke-linejoin="round"/>
<path d="M104.129 230.039C110.108 247.47 127.654 270.252 164.644 259.73C201.634 249.207 206.498 211.724 195.027 192.249C188.932 198.458 174.257 214.576 157.172 222.08C136.139 231.315 112.133 231.315 104.129 230.039Z" fill="#F0A498"/>
<path d="M157.902 266.843C149.283 259.89 146.296 250.014 150.532 241.914C154.768 233.814 167.156 231.09 170.976 238.421C171.488 229.148 192.63 223.707 188.144 246.836" fill="#D36C5A"/>
<path d="M157.902 266.843C149.283 259.89 146.296 250.014 150.532 241.914C154.768 233.814 167.156 231.09 170.976 238.421C171.488 229.148 192.63 223.707 188.144 246.836" stroke="#262A4E" stroke-width="5" stroke-linecap="round" stroke-linejoin="round"/>
<path d="M104.129 230.039C110.108 247.47 127.654 270.252 164.644 259.73C201.634 249.207 206.498 211.724 195.027 192.249C188.932 198.458 174.257 214.576 157.172 222.08C136.139 231.315 112.133 231.315 104.129 230.039V230.039Z" stroke="#262A4E" stroke-width="5" stroke-linecap="round" stroke-linejoin="round"/>
<path d="M119.156 227.515C119.156 227.515 125.385 239.422 130.557 238.813C135.729 238.204 137.222 225.227 137.222 225.227" fill="#66B6CC"/>
<path d="M119.156 227.515C119.156 227.515 125.385 239.422 130.557 238.813C135.729 238.204 137.222 225.227 137.222 225.227" stroke="#262A4E" stroke-width="5" stroke-linecap="round" stroke-linejoin="round"/>
<path d="M176.96 206.502C176.96 206.502 185.285 211.341 189.219 207.681C193.154 204.022 187.156 196.864 187.156 196.864" fill="#66B6CC"/>
<path d="M176.96 206.502C176.96 206.502 185.285 211.341 189.219 207.681C193.154 204.022 187.156 196.864 187.156 196.864" stroke="#262A4E" stroke-width="5" stroke-linecap="round" stroke-linejoin="round"/>
<path d="M80.5375 151.3C67.759 152.69 59.4472 142.815 48.5528 147.198C37.6584 151.582 33.5762 163.527 41.9841 172.172C50.1677 180.586 62.5745 183.502 73.5266 176.293" fill="#66B6CC"/>
<path d="M80.5375 151.3C67.759 152.69 59.4472 142.815 48.5528 147.198C37.6584 151.582 33.5762 163.527 41.9841 172.172C50.1677 180.586 62.5745 183.502 73.5266 176.293" stroke="#262A4E" stroke-width="5" stroke-linecap="round" stroke-linejoin="round"/>
<path d="M160.408 47.6481C156.397 20.489 137.831 17.8359 129.276 23.3408C120.721 28.8457 114.998 48.6927 126.616 73.8396C140.478 103.838 155.98 102.575 155.98 102.575C155.98 102.575 176.602 63.8167 210.888 71.7888C245.18 79.761 238.22 124.954 192.585 139.36C161.536 149.158 104.635 153.997 54.7197 129.247L63.3455 127.863C63.3455 127.863 49.4584 71.8978 70.8691 36.5743C81.1931 19.5406 101.438 4.26916 126.277 3.06437C151.11 1.85958 169.489 17.5988 160.415 47.6481H160.408Z" fill="#D36C5A"/>
<path d="M56.5324 105.458C81.3652 110.034 139.919 99.1075 145.828 87.2646C155.793 87.553 162.099 88.8283 157.498 100.011C152.897 111.194 117.663 144.89 60.903 126.446C35.1729 112.283 56.5324 105.452 56.5324 105.452V105.458Z" fill="#262A4E" stroke="#262A4E" stroke-width="5" stroke-linecap="round" stroke-linejoin="round"/>
<path d="M160.408 47.6481C156.397 20.489 137.831 17.8359 129.276 23.3408C120.721 28.8457 114.998 48.6927 126.616 73.8396C140.478 103.838 155.98 102.575 155.98 102.575C155.98 102.575 176.602 63.8167 210.888 71.7888C245.18 79.761 238.22 124.954 192.585 139.36C161.536 149.158 104.635 153.997 54.7197 129.247L63.3455 127.863C63.3455 127.863 49.4584 71.8978 70.8691 36.5743C81.1931 19.5406 101.438 4.26916 126.277 3.06437C151.11 1.85958 169.489 17.5988 160.415 47.6481H160.408Z" stroke="#262A4E" stroke-width="5" stroke-linecap="round" stroke-linejoin="round"/>
<path d="M113.191 98.8636C109.583 101.76 122.074 127.138 125.553 127.356C129.033 127.574 145.804 117.672 146.33 114.789C146.855 111.905 133.692 94.7878 131.488 93.9291C129.283 93.0704 115.236 97.2231 113.191 98.8572V98.8636Z" fill="#FFE156" stroke="#262A4E" stroke-width="5" stroke-linecap="round" stroke-linejoin="round"/>
<path d="M122.644 104.439C121.003 105.759 127.719 117.179 129.302 117.281C130.885 117.384 137.268 114.282 137.505 112.968C137.742 111.655 131.103 102.285 130.097 101.895C129.091 101.504 123.573 103.689 122.644 104.439Z" fill="#262A4E" stroke="#262A4E" stroke-width="5" stroke-linecap="round" stroke-linejoin="round"/>
<path d="M127.284 108.098C125.798 107.855 121.728 108.694 121.504 110.033C121.28 111.373 122.625 115.256 124.682 115.064C126.74 114.872 129.95 113.462 130.104 112.68C130.258 111.898 128.406 108.284 127.284 108.098Z" fill="#FFE156" stroke="#262A4E" stroke-width="5" stroke-linecap="round" stroke-linejoin="round"/>
<path d="M253.999 199.882C253.282 202.946 248.732 203.9 247.129 202.036C245.527 200.171 221.912 130.876 221.912 130.876L227.417 128.729C227.417 128.729 254.717 196.819 253.999 199.882Z" fill="#D36C5A"/>
<path d="M243.22 122.173L218.868 154.94" stroke="#262A4E" stroke-width="5" stroke-linecap="round" stroke-linejoin="round"/>
<path d="M247.444 136.016L223.085 168.782" stroke="#262A4E" stroke-width="5" stroke-linecap="round" stroke-linejoin="round"/>
<path d="M251.66 149.858L227.308 182.631" stroke="#262A4E" stroke-width="5" stroke-linecap="round" stroke-linejoin="round"/>
<path d="M255.882 163.701L231.523 196.474" stroke="#262A4E" stroke-width="5" stroke-linecap="round" stroke-linejoin="round"/>
<path d="M260.108 177.542L235.749 210.315" stroke="#262A4E" stroke-width="5" stroke-linecap="round" stroke-linejoin="round"/>
<path d="M253.999 199.882C253.282 202.946 248.732 203.9 247.129 202.036C245.527 200.171 221.912 130.876 221.912 130.876L227.417 128.729C227.417 128.729 254.717 196.819 253.999 199.882V199.882Z" stroke="#262A4E" stroke-width="5" stroke-linecap="round" stroke-linejoin="round"/>
<path d="M213.926 101.941L225.653 109.491L238.842 108.472L235.606 121.084L240.329 134.189L226.506 134.195L216.336 143.545L210.933 130.703L200.02 123.621L210.408 115.438L213.926 101.941Z" fill="#FFE156" stroke="#262A4E" stroke-width="5" stroke-linecap="round" stroke-linejoin="round"/>
<path d="M16.5354 282.32C13.9528 301.315 19.432 325.827 23.8474 334.549C30.7366 348.148 66.2715 355.383 75.9548 348.366C85.6315 341.349 99.8135 294.567 99.8135 294.567L16.5418 282.32H16.5354Z" fill="#D36C5A"/>
<path d="M22.8677 286.371C22.8677 286.371 31.7563 284.397 38.3186 292.555C38.1496 308.731 50.3653 336.907 57.7747 350.471L37.8643 345.599C25.8316 324.322 22.8613 286.371 22.8613 286.371H22.8677Z" fill="white" stroke="#262A4E" stroke-width="5" stroke-linecap="round" stroke-linejoin="round"/>
<path d="M74.2892 344.79C56.9606 327.391 46.2457 285.621 46.2457 285.621H46.2393C46.2393 285.621 54.6664 282.147 62.5296 289.056C64.6424 301.93 76.0333 321.104 85.4166 334.383L77.8467 346.766C76.6966 346.199 75.5097 345.544 74.2892 344.79Z" fill="white" stroke="#262A4E" stroke-width="5" stroke-linecap="round" stroke-linejoin="round"/>
<path d="M16.5354 282.32C13.9528 301.315 19.432 325.827 23.8474 334.549C30.7366 348.148 66.2715 355.383 75.9548 348.366C85.6316 341.349 99.8135 294.567 99.8135 294.567L16.5418 282.32H16.5354Z" stroke="#262A4E" stroke-width="5" stroke-linecap="round" stroke-linejoin="round"/>
<path d="M25.0282 275.355C4.93763 282.109 22.484 298.983 52.2322 304.09C81.9803 309.198 104.948 302.693 98.9179 289.498C92.8875 276.303 45.1252 268.6 25.0282 275.355Z" fill="#262A4E" stroke="#262A4E" stroke-width="5" stroke-linecap="round" stroke-linejoin="round"/>
<path d="M58.7686 232.205C67.6251 232.16 84.1717 238.062 92.0093 260.934C99.1996 281.903 98.1807 297.238 98.1807 297.238C96.9374 298.071 92.24 300.225 89.2024 301.173C89.1191 292.663 88.7794 265.58 81.666 254.244C71.9636 238.787 61.9792 236.031 61.9792 236.031L58.7686 232.199V232.205Z" fill="white" stroke="#262A4E" stroke-width="5" stroke-linecap="round" stroke-linejoin="round"/>
<path d="M90.2535 302.269C87.453 308.428 87.8311 315.195 91.6378 314.24C95.4444 313.285 99.0331 303.48 97.4695 299.456C96.0019 295.675 92.4773 297.379 90.2535 302.269Z" fill="white" stroke="#262A4E" stroke-width="5" stroke-linecap="round" stroke-linejoin="round"/>
</svg>
